<?xml version="1.0" encoding="utf-8"?>
<!-- Generator: Adobe Illustrator 15.1.0, SVG Export Plug-In . SVG Version: 6.00 Build 0)  -->
<!DOCTYPE svg PUBLIC "-//W3C//DTD SVG 1.1//EN" "http://www.w3.org/Graphics/SVG/1.1/DTD/svg11.dtd">
<svg version="1.1" id="Layer_1" xmlns="http://www.w3.org/2000/svg" xmlns:xlink="http://www.w3.org/1999/xlink" x="0px" y="0px"
	 width="804px" height="804px" viewBox="0 0 804 804" enable-background="new 0 0 804 804" xml:space="preserve">
<g id="chess">
	<rect x="2" y="2" fill="#FFFFFF" stroke="#000000" stroke-width="4" stroke-miterlimit="10" width="800" height="800"/>
	<rect x="102" y="2" stroke="#000000" stroke-width="4" stroke-miterlimit="10" width="100" height="100"/>
	<rect x="302" y="2" stroke="#000000" stroke-width="4" stroke-miterlimit="10" width="100" height="100"/>
	<rect x="502" y="2" stroke="#000000" stroke-width="4" stroke-miterlimit="10" width="100" height="100"/>
	<rect x="702" y="2" stroke="#000000" stroke-width="4" stroke-miterlimit="10" width="100" height="100"/>
	<rect x="702" y="202" stroke="#000000" stroke-width="4" stroke-miterlimit="10" width="100" height="100"/>
	<rect x="702" y="402" stroke="#000000" stroke-width="4" stroke-miterlimit="10" width="100" height="100"/>
	<rect x="702" y="602" stroke="#000000" stroke-width="4" stroke-miterlimit="10" width="100" height="100"/>
	<rect x="602" y="102" stroke="#000000" stroke-width="4" stroke-miterlimit="10" width="100" height="100"/>
	<rect x="602" y="302" stroke="#000000" stroke-width="4" stroke-miterlimit="10" width="100" height="100"/>
	<rect x="602" y="502" stroke="#000000" stroke-width="4" stroke-miterlimit="10" width="100" height="100"/>
	<rect x="602" y="702" stroke="#000000" stroke-width="4" stroke-miterlimit="10" width="100" height="100"/>
	<rect x="502" y="202" stroke="#000000" stroke-width="4" stroke-miterlimit="10" width="100" height="100"/>
	<rect x="502" y="402" stroke="#000000" stroke-width="4" stroke-miterlimit="10" width="100" height="100"/>
	<rect x="502" y="602" stroke="#000000" stroke-width="4" stroke-miterlimit="10" width="100" height="100"/>
	<rect x="402" y="102" stroke="#000000" stroke-width="4" stroke-miterlimit="10" width="100" height="100"/>
	<rect x="402" y="302" stroke="#000000" stroke-width="4" stroke-miterlimit="10" width="100" height="100"/>
	<rect x="402" y="502" stroke="#000000" stroke-width="4" stroke-miterlimit="10" width="100" height="100"/>
	<rect x="402" y="702" stroke="#000000" stroke-width="4" stroke-miterlimit="10" width="100" height="100"/>
	<rect x="302" y="202" stroke="#000000" stroke-width="4" stroke-miterlimit="10" width="100" height="100"/>
	<rect x="302" y="402" stroke="#000000" stroke-width="4" stroke-miterlimit="10" width="100" height="100"/>
	<rect x="302" y="602" stroke="#000000" stroke-width="4" stroke-miterlimit="10" width="100" height="100"/>
	<rect x="202" y="102" stroke="#000000" stroke-width="4" stroke-miterlimit="10" width="100" height="100"/>
	<rect x="202" y="302" stroke="#000000" stroke-width="4" stroke-miterlimit="10" width="100" height="100"/>
	<rect x="202" y="502" stroke="#000000" stroke-width="4" stroke-miterlimit="10" width="100" height="100"/>
	<rect x="202" y="702" stroke="#000000" stroke-width="4" stroke-miterlimit="10" width="100" height="100"/>
	<rect x="102" y="202" stroke="#000000" stroke-width="4" stroke-miterlimit="10" width="100" height="100"/>
	<rect x="102" y="402" stroke="#000000" stroke-width="4" stroke-miterlimit="10" width="100" height="100"/>
	<rect x="102" y="602" stroke="#000000" stroke-width="4" stroke-miterlimit="10" width="100" height="100"/>
	<rect x="2" y="102" stroke="#000000" stroke-width="4" stroke-miterlimit="10" width="100" height="100"/>
	<rect x="2" y="302" stroke="#000000" stroke-width="4" stroke-miterlimit="10" width="100" height="100"/>
	<rect x="2" y="502" stroke="#000000" stroke-width="4" stroke-miterlimit="10" width="100" height="100"/>
	<rect x="2" y="702" stroke="#000000" stroke-width="4" stroke-miterlimit="10" width="100" height="100"/>
</g>
</svg>
