<?xml version="1.0" encoding="utf-8"?>
<!-- Generator: Adobe Illustrator 15.1.0, SVG Export Plug-In . SVG Version: 6.00 Build 0)  -->
<!DOCTYPE svg PUBLIC "-//W3C//DTD SVG 1.1//EN" "http://www.w3.org/Graphics/SVG/1.1/DTD/svg11.dtd">
<svg version="1.1" id="Layer_1" xmlns="http://www.w3.org/2000/svg" xmlns:xlink="http://www.w3.org/1999/xlink" x="0px" y="0px"
	 width="804px" height="804px" viewBox="0 0 804 804" enable-background="new 0 0 804 804" xml:space="preserve">
<rect x="2" y="2" fill="none" stroke="#000000" stroke-width="4" stroke-miterlimit="10" width="800" height="800"/>
<rect x="32" y="32" fill="none" stroke="#000000" stroke-width="4" stroke-miterlimit="10" width="740" height="740"/>
<line fill="none" stroke="#000000" stroke-width="4" stroke-miterlimit="10" x1="73.1" y1="32" x2="73.1" y2="772"/>
<line fill="none" stroke="#000000" stroke-width="4" stroke-miterlimit="10" x1="114.2" y1="32" x2="114.2" y2="772"/>
<line fill="none" stroke="#000000" stroke-width="4" stroke-miterlimit="10" x1="155.3" y1="32" x2="155.3" y2="772"/>
<line fill="none" stroke="#000000" stroke-width="4" stroke-miterlimit="10" x1="196.4" y1="32" x2="196.4" y2="772"/>
<line fill="none" stroke="#000000" stroke-width="4" stroke-miterlimit="10" x1="237.6" y1="32" x2="237.6" y2="772"/>
<line fill="none" stroke="#000000" stroke-width="4" stroke-miterlimit="10" x1="278.7" y1="32" x2="278.7" y2="772"/>
<line fill="none" stroke="#000000" stroke-width="4" stroke-miterlimit="10" x1="319.8" y1="32" x2="319.8" y2="772"/>
<line fill="none" stroke="#000000" stroke-width="4" stroke-miterlimit="10" x1="360.9" y1="32" x2="360.9" y2="772"/>
<line fill="none" stroke="#000000" stroke-width="4" stroke-miterlimit="10" x1="402" y1="32" x2="402" y2="772"/>
<line fill="none" stroke="#000000" stroke-width="4" stroke-miterlimit="10" x1="443.1" y1="32" x2="443.1" y2="772"/>
<line fill="none" stroke="#000000" stroke-width="4" stroke-miterlimit="10" x1="484.2" y1="32" x2="484.2" y2="772"/>
<line fill="none" stroke="#000000" stroke-width="4" stroke-miterlimit="10" x1="525.3" y1="32" x2="525.3" y2="772"/>
<line fill="none" stroke="#000000" stroke-width="4" stroke-miterlimit="10" x1="566.4" y1="32" x2="566.4" y2="772"/>
<line fill="none" stroke="#000000" stroke-width="4" stroke-miterlimit="10" x1="607.6" y1="32" x2="607.6" y2="772"/>
<line fill="none" stroke="#000000" stroke-width="4" stroke-miterlimit="10" x1="648.7" y1="32" x2="648.7" y2="772"/>
<line fill="none" stroke="#000000" stroke-width="4" stroke-miterlimit="10" x1="689.8" y1="32" x2="689.8" y2="772"/>
<line fill="none" stroke="#000000" stroke-width="4" stroke-miterlimit="10" x1="730.9" y1="32" x2="730.9" y2="772"/>
<line fill="none" stroke="#000000" stroke-width="4" stroke-miterlimit="10" x1="772" y1="73.1" x2="32" y2="73.1"/>
<line fill="none" stroke="#000000" stroke-width="4" stroke-miterlimit="10" x1="772" y1="114.2" x2="32" y2="114.2"/>
<line fill="none" stroke="#000000" stroke-width="4" stroke-miterlimit="10" x1="772" y1="155.3" x2="32" y2="155.3"/>
<line fill="none" stroke="#000000" stroke-width="4" stroke-miterlimit="10" x1="772" y1="196.4" x2="32" y2="196.4"/>
<line fill="none" stroke="#000000" stroke-width="4" stroke-miterlimit="10" x1="772" y1="237.6" x2="32" y2="237.6"/>
<line fill="none" stroke="#000000" stroke-width="4" stroke-miterlimit="10" x1="772" y1="278.7" x2="32" y2="278.7"/>
<line fill="none" stroke="#000000" stroke-width="4" stroke-miterlimit="10" x1="772" y1="319.8" x2="32" y2="319.8"/>
<line fill="none" stroke="#000000" stroke-width="4" stroke-miterlimit="10" x1="772" y1="360.9" x2="32" y2="360.9"/>
<line fill="none" stroke="#000000" stroke-width="4" stroke-miterlimit="10" x1="772" y1="402" x2="32" y2="402"/>
<line fill="none" stroke="#000000" stroke-width="4" stroke-miterlimit="10" x1="772" y1="443.1" x2="32" y2="443.1"/>
<line fill="none" stroke="#000000" stroke-width="4" stroke-miterlimit="10" x1="772" y1="484.2" x2="32" y2="484.2"/>
<line fill="none" stroke="#000000" stroke-width="4" stroke-miterlimit="10" x1="772" y1="525.3" x2="32" y2="525.3"/>
<line fill="none" stroke="#000000" stroke-width="4" stroke-miterlimit="10" x1="772" y1="566.4" x2="32" y2="566.4"/>
<line fill="none" stroke="#000000" stroke-width="4" stroke-miterlimit="10" x1="772" y1="607.6" x2="32" y2="607.6"/>
<line fill="none" stroke="#000000" stroke-width="4" stroke-miterlimit="10" x1="772" y1="648.7" x2="32" y2="648.7"/>
<line fill="none" stroke="#000000" stroke-width="4" stroke-miterlimit="10" x1="772" y1="689.8" x2="32" y2="689.8"/>
<line fill="none" stroke="#000000" stroke-width="4" stroke-miterlimit="10" x1="772" y1="730.9" x2="32" y2="730.9"/>
<circle stroke="#000000" stroke-width="4" stroke-miterlimit="10" cx="155.3" cy="155.3" r="5"/>
<circle stroke="#000000" stroke-width="4" stroke-miterlimit="10" cx="648.7" cy="155.3" r="5"/>
<circle stroke="#000000" stroke-width="4" stroke-miterlimit="10" cx="402" cy="155.3" r="5"/>
<circle stroke="#000000" stroke-width="4" stroke-miterlimit="10" cx="155.3" cy="648.7" r="5"/>
<circle stroke="#000000" stroke-width="4" stroke-miterlimit="10" cx="648.7" cy="648.7" r="5"/>
<circle stroke="#000000" stroke-width="4" stroke-miterlimit="10" cx="402" cy="648.7" r="5"/>
<path stroke="#000000" stroke-width="4" stroke-miterlimit="10" d="M160.3,401.8c0,2.7-2.2,5-5,5c-2.7,0-5-2.2-5-5c0-2.7,2.2-5,5-5
	C158.1,396.9,160.3,399.1,160.3,401.8z"/>
<path stroke="#000000" stroke-width="4" stroke-miterlimit="10" d="M653.6,401.8c0,2.7-2.2,5-5,5c-2.7,0-5-2.2-5-5c0-2.7,2.2-5,5-5
	C651.4,396.9,653.6,399.1,653.6,401.8z"/>
<path stroke="#000000" stroke-width="4" stroke-miterlimit="10" d="M406.9,401.8c0,2.7-2.2,5-5,5s-5-2.2-5-5c0-2.7,2.2-5,5-5
	S406.9,399.1,406.9,401.8z"/>
</svg>
