<?xml version="1.0" encoding="utf-8"?>
<!-- Generator: Adobe Illustrator 15.1.0, SVG Export Plug-In . SVG Version: 6.00 Build 0)  -->
<!DOCTYPE svg PUBLIC "-//W3C//DTD SVG 1.1//EN" "http://www.w3.org/Graphics/SVG/1.1/DTD/svg11.dtd">
<svg version="1.1" id="Layer_1" xmlns="http://www.w3.org/2000/svg" xmlns:xlink="http://www.w3.org/1999/xlink" x="0px" y="0px"
	 width="804px" height="804px" viewBox="0 0 804 804" enable-background="new 0 0 804 804" xml:space="preserve">
<g id="scrab">
	<g>
		<rect x="162" y="2" stroke="#000000" stroke-width="4" stroke-miterlimit="10" width="53.3" height="53.3"/>
		<rect x="375.3" y="2" stroke="#000000" stroke-width="4" stroke-miterlimit="10" width="53.3" height="53.3"/>
		<rect x="588.7" y="2" stroke="#000000" stroke-width="4" stroke-miterlimit="10" width="53.3" height="53.3"/>
		<rect x="748.7" y="2" stroke="#000000" stroke-width="4" stroke-miterlimit="10" width="53.3" height="53.3"/>
		<rect x="162" y="748.7" stroke="#000000" stroke-width="4" stroke-miterlimit="10" width="53.3" height="53.3"/>
		<rect x="375.3" y="748.7" stroke="#000000" stroke-width="4" stroke-miterlimit="10" width="53.3" height="53.3"/>
		<rect x="588.7" y="748.7" stroke="#000000" stroke-width="4" stroke-miterlimit="10" width="53.3" height="53.3"/>
		<rect x="748.7" y="748.7" stroke="#000000" stroke-width="4" stroke-miterlimit="10" width="53.3" height="53.3"/>
		<rect x="2" y="2" stroke="#000000" stroke-width="4" stroke-miterlimit="10" width="53.3" height="53.3"/>
		<rect x="2" y="162" stroke="#000000" stroke-width="4" stroke-miterlimit="10" width="53.3" height="53.3"/>
		<rect x="2" y="375.3" stroke="#000000" stroke-width="4" stroke-miterlimit="10" width="53.3" height="53.3"/>
		<rect x="2" y="588.7" stroke="#000000" stroke-width="4" stroke-miterlimit="10" width="53.3" height="53.3"/>
		<rect x="2" y="748.7" stroke="#000000" stroke-width="4" stroke-miterlimit="10" width="53.3" height="53.3"/>
		<rect x="748.7" y="162" stroke="#000000" stroke-width="4" stroke-miterlimit="10" width="53.3" height="53.3"/>
		<rect x="748.7" y="375.3" stroke="#000000" stroke-width="4" stroke-miterlimit="10" width="53.3" height="53.3"/>
		<rect x="748.7" y="588.7" stroke="#000000" stroke-width="4" stroke-miterlimit="10" width="53.3" height="53.3"/>
		<rect x="695.3" y="55.3" stroke="#000000" stroke-width="4" stroke-miterlimit="10" width="53.3" height="53.3"/>
		<rect x="695.3" y="268.7" stroke="#000000" stroke-width="4" stroke-miterlimit="10" width="53.3" height="53.3"/>
		<rect x="695.3" y="482" stroke="#000000" stroke-width="4" stroke-miterlimit="10" width="53.3" height="53.3"/>
		<rect x="695.3" y="695.3" stroke="#000000" stroke-width="4" stroke-miterlimit="10" width="53.3" height="53.3"/>
		<rect x="642" y="108.7" stroke="#000000" stroke-width="4" stroke-miterlimit="10" width="53.3" height="53.3"/>
		<rect x="642" y="322" stroke="#000000" stroke-width="4" stroke-miterlimit="10" width="53.3" height="53.3"/>
		<rect x="642" y="428.7" stroke="#000000" stroke-width="4" stroke-miterlimit="10" width="53.3" height="53.3"/>
		<rect x="642" y="642" stroke="#000000" stroke-width="4" stroke-miterlimit="10" width="53.3" height="53.3"/>
		<rect x="588.7" y="162" stroke="#000000" stroke-width="4" stroke-miterlimit="10" width="53.3" height="53.3"/>
		<rect x="588.7" y="375.3" stroke="#000000" stroke-width="4" stroke-miterlimit="10" width="53.3" height="53.3"/>
		<rect x="588.7" y="588.7" stroke="#000000" stroke-width="4" stroke-miterlimit="10" width="53.3" height="53.3"/>
		<rect x="535.3" y="215.3" stroke="#000000" stroke-width="4" stroke-miterlimit="10" width="53.3" height="53.3"/>
		<rect x="535.3" y="535.3" stroke="#000000" stroke-width="4" stroke-miterlimit="10" width="53.3" height="53.3"/>
		<rect x="482" y="55.3" stroke="#000000" stroke-width="4" stroke-miterlimit="10" width="53.3" height="53.3"/>
		<rect x="482" y="268.7" stroke="#000000" stroke-width="4" stroke-miterlimit="10" width="53.3" height="53.3"/>
		<rect x="482" y="482" stroke="#000000" stroke-width="4" stroke-miterlimit="10" width="53.3" height="53.3"/>
		<rect x="482" y="695.3" stroke="#000000" stroke-width="4" stroke-miterlimit="10" width="53.3" height="53.3"/>
		<rect x="428.7" y="108.7" stroke="#000000" stroke-width="4" stroke-miterlimit="10" width="53.3" height="53.3"/>
		<rect x="428.7" y="322" stroke="#000000" stroke-width="4" stroke-miterlimit="10" width="53.3" height="53.3"/>
		<rect x="428.7" y="428.7" stroke="#000000" stroke-width="4" stroke-miterlimit="10" width="53.3" height="53.3"/>
		<rect x="428.7" y="642" stroke="#000000" stroke-width="4" stroke-miterlimit="10" width="53.3" height="53.3"/>
		<rect x="375.3" y="162" stroke="#000000" stroke-width="4" stroke-miterlimit="10" width="53.3" height="53.3"/>
		<rect x="375.3" y="375.3" stroke="#000000" stroke-width="4" stroke-miterlimit="10" width="53.3" height="53.3"/>
		<rect x="375.3" y="588.7" stroke="#000000" stroke-width="4" stroke-miterlimit="10" width="53.3" height="53.3"/>
		<rect x="322" y="108.7" stroke="#000000" stroke-width="4" stroke-miterlimit="10" width="53.3" height="53.3"/>
		<rect x="322" y="322" stroke="#000000" stroke-width="4" stroke-miterlimit="10" width="53.3" height="53.3"/>
		<rect x="322" y="428.7" stroke="#000000" stroke-width="4" stroke-miterlimit="10" width="53.3" height="53.3"/>
		<rect x="322" y="642" stroke="#000000" stroke-width="4" stroke-miterlimit="10" width="53.3" height="53.3"/>
		<rect x="268.7" y="55.3" stroke="#000000" stroke-width="4" stroke-miterlimit="10" width="53.3" height="53.3"/>
		<rect x="268.7" y="268.7" stroke="#000000" stroke-width="4" stroke-miterlimit="10" width="53.3" height="53.3"/>
		<rect x="268.7" y="482" stroke="#000000" stroke-width="4" stroke-miterlimit="10" width="53.3" height="53.3"/>
		<rect x="268.7" y="695.3" stroke="#000000" stroke-width="4" stroke-miterlimit="10" width="53.3" height="53.3"/>
		<rect x="215.3" y="215.3" stroke="#000000" stroke-width="4" stroke-miterlimit="10" width="53.3" height="53.3"/>
		<rect x="215.3" y="535.3" stroke="#000000" stroke-width="4" stroke-miterlimit="10" width="53.3" height="53.3"/>
		<rect x="162" y="162" stroke="#000000" stroke-width="4" stroke-miterlimit="10" width="53.3" height="53.3"/>
		<rect x="162" y="375.3" stroke="#000000" stroke-width="4" stroke-miterlimit="10" width="53.3" height="53.3"/>
		<rect x="162" y="588.7" stroke="#000000" stroke-width="4" stroke-miterlimit="10" width="53.3" height="53.3"/>
		<rect x="108.7" y="108.7" stroke="#000000" stroke-width="4" stroke-miterlimit="10" width="53.3" height="53.3"/>
		<rect x="108.7" y="322" stroke="#000000" stroke-width="4" stroke-miterlimit="10" width="53.3" height="53.3"/>
		<rect x="108.7" y="428.7" stroke="#000000" stroke-width="4" stroke-miterlimit="10" width="53.3" height="53.3"/>
		<rect x="108.7" y="642" stroke="#000000" stroke-width="4" stroke-miterlimit="10" width="53.3" height="53.3"/>
		<rect x="55.3" y="55.3" stroke="#000000" stroke-width="4" stroke-miterlimit="10" width="53.3" height="53.3"/>
		<rect x="55.3" y="268.7" stroke="#000000" stroke-width="4" stroke-miterlimit="10" width="53.3" height="53.3"/>
		<rect x="55.3" y="482" stroke="#000000" stroke-width="4" stroke-miterlimit="10" width="53.3" height="53.3"/>
		<rect x="55.3" y="695.3" stroke="#000000" stroke-width="4" stroke-miterlimit="10" width="53.3" height="53.3"/>
	</g>
	<g>
		<rect x="108.7" y="2" fill="#FFFFFF" stroke="#000000" stroke-width="4" stroke-miterlimit="10" width="53.3" height="53.3"/>
		<rect x="55.3" y="2" fill="#FFFFFF" stroke="#000000" stroke-width="4" stroke-miterlimit="10" width="53.3" height="53.3"/>
		<rect x="215.3" y="2" fill="#FFFFFF" stroke="#000000" stroke-width="4" stroke-miterlimit="10" width="53.3" height="53.3"/>
		<rect x="322" y="2" fill="#FFFFFF" stroke="#000000" stroke-width="4" stroke-miterlimit="10" width="53.3" height="53.3"/>
		<rect x="268.7" y="2" fill="#FFFFFF" stroke="#000000" stroke-width="4" stroke-miterlimit="10" width="53.3" height="53.3"/>
		<rect x="482" y="2" fill="#FFFFFF" stroke="#000000" stroke-width="4" stroke-miterlimit="10" width="53.3" height="53.3"/>
		<rect x="428.7" y="2" fill="#FFFFFF" stroke="#000000" stroke-width="4" stroke-miterlimit="10" width="53.3" height="53.3"/>
		<rect x="535.3" y="2" fill="#FFFFFF" stroke="#000000" stroke-width="4" stroke-miterlimit="10" width="53.3" height="53.3"/>
		<rect x="695.3" y="2" fill="#FFFFFF" stroke="#000000" stroke-width="4" stroke-miterlimit="10" width="53.3" height="53.3"/>
		<rect x="642" y="2" fill="#FFFFFF" stroke="#000000" stroke-width="4" stroke-miterlimit="10" width="53.3" height="53.3"/>
		<rect x="55.3" y="748.7" fill="#FFFFFF" stroke="#000000" stroke-width="4" stroke-miterlimit="10" width="53.3" height="53.3"/>
		<rect x="108.7" y="748.7" fill="#FFFFFF" stroke="#000000" stroke-width="4" stroke-miterlimit="10" width="53.3" height="53.3"/>
		<rect x="268.7" y="748.7" fill="#FFFFFF" stroke="#000000" stroke-width="4" stroke-miterlimit="10" width="53.3" height="53.3"/>
		<rect x="215.3" y="748.7" fill="#FFFFFF" stroke="#000000" stroke-width="4" stroke-miterlimit="10" width="53.3" height="53.3"/>
		<rect x="322" y="748.7" fill="#FFFFFF" stroke="#000000" stroke-width="4" stroke-miterlimit="10" width="53.3" height="53.3"/>
		<rect x="482" y="748.7" fill="#FFFFFF" stroke="#000000" stroke-width="4" stroke-miterlimit="10" width="53.3" height="53.3"/>
		<rect x="428.7" y="748.7" fill="#FFFFFF" stroke="#000000" stroke-width="4" stroke-miterlimit="10" width="53.3" height="53.3"/>
		<rect x="535.3" y="748.7" fill="#FFFFFF" stroke="#000000" stroke-width="4" stroke-miterlimit="10" width="53.3" height="53.3"/>
		<rect x="695.3" y="748.7" fill="#FFFFFF" stroke="#000000" stroke-width="4" stroke-miterlimit="10" width="53.3" height="53.3"/>
		<rect x="642" y="748.7" fill="#FFFFFF" stroke="#000000" stroke-width="4" stroke-miterlimit="10" width="53.3" height="53.3"/>
		<rect x="2" y="55.3" fill="#FFFFFF" stroke="#000000" stroke-width="4" stroke-miterlimit="10" width="53.3" height="53.3"/>
		<rect x="2" y="108.7" fill="#FFFFFF" stroke="#000000" stroke-width="4" stroke-miterlimit="10" width="53.3" height="53.3"/>
		<rect x="2" y="268.7" fill="#FFFFFF" stroke="#000000" stroke-width="4" stroke-miterlimit="10" width="53.3" height="53.3"/>
		<rect x="2" y="215.3" fill="#FFFFFF" stroke="#000000" stroke-width="4" stroke-miterlimit="10" width="53.3" height="53.3"/>
		<rect x="2" y="322" fill="#FFFFFF" stroke="#000000" stroke-width="4" stroke-miterlimit="10" width="53.3" height="53.3"/>
		<rect x="2" y="482" fill="#FFFFFF" stroke="#000000" stroke-width="4" stroke-miterlimit="10" width="53.3" height="53.3"/>
		<rect x="2" y="428.7" fill="#FFFFFF" stroke="#000000" stroke-width="4" stroke-miterlimit="10" width="53.3" height="53.3"/>
		<rect x="2" y="535.3" fill="#FFFFFF" stroke="#000000" stroke-width="4" stroke-miterlimit="10" width="53.3" height="53.3"/>
		<rect x="2" y="695.3" fill="#FFFFFF" stroke="#000000" stroke-width="4" stroke-miterlimit="10" width="53.3" height="53.3"/>
		<rect x="2" y="642" fill="#FFFFFF" stroke="#000000" stroke-width="4" stroke-miterlimit="10" width="53.3" height="53.3"/>
		<rect x="748.7" y="55.3" fill="#FFFFFF" stroke="#000000" stroke-width="4" stroke-miterlimit="10" width="53.3" height="53.3"/>
		<rect x="748.7" y="108.7" fill="#FFFFFF" stroke="#000000" stroke-width="4" stroke-miterlimit="10" width="53.3" height="53.3"/>
		<rect x="748.7" y="268.7" fill="#FFFFFF" stroke="#000000" stroke-width="4" stroke-miterlimit="10" width="53.3" height="53.3"/>
		<rect x="748.7" y="215.3" fill="#FFFFFF" stroke="#000000" stroke-width="4" stroke-miterlimit="10" width="53.3" height="53.3"/>
		<rect x="748.7" y="322" fill="#FFFFFF" stroke="#000000" stroke-width="4" stroke-miterlimit="10" width="53.3" height="53.3"/>
		<rect x="748.7" y="482" fill="#FFFFFF" stroke="#000000" stroke-width="4" stroke-miterlimit="10" width="53.3" height="53.3"/>
		<rect x="748.7" y="428.7" fill="#FFFFFF" stroke="#000000" stroke-width="4" stroke-miterlimit="10" width="53.3" height="53.3"/>
		<rect x="748.7" y="535.3" fill="#FFFFFF" stroke="#000000" stroke-width="4" stroke-miterlimit="10" width="53.3" height="53.3"/>
		<rect x="748.7" y="695.3" fill="#FFFFFF" stroke="#000000" stroke-width="4" stroke-miterlimit="10" width="53.3" height="53.3"/>
		<rect x="748.7" y="642" fill="#FFFFFF" stroke="#000000" stroke-width="4" stroke-miterlimit="10" width="53.3" height="53.3"/>
		<rect x="695.3" y="108.7" fill="#FFFFFF" stroke="#000000" stroke-width="4" stroke-miterlimit="10" width="53.3" height="53.3"/>
		<rect x="695.3" y="162" fill="#FFFFFF" stroke="#000000" stroke-width="4" stroke-miterlimit="10" width="53.3" height="53.3"/>
		<rect x="695.3" y="215.3" fill="#FFFFFF" stroke="#000000" stroke-width="4" stroke-miterlimit="10" width="53.3" height="53.3"/>
		<rect x="695.3" y="322" fill="#FFFFFF" stroke="#000000" stroke-width="4" stroke-miterlimit="10" width="53.3" height="53.3"/>
		<rect x="695.3" y="375.3" fill="#FFFFFF" stroke="#000000" stroke-width="4" stroke-miterlimit="10" width="53.3" height="53.3"/>
		<rect x="695.3" y="428.7" fill="#FFFFFF" stroke="#000000" stroke-width="4" stroke-miterlimit="10" width="53.3" height="53.3"/>
		<rect x="695.3" y="535.3" fill="#FFFFFF" stroke="#000000" stroke-width="4" stroke-miterlimit="10" width="53.3" height="53.3"/>
		<rect x="695.3" y="588.7" fill="#FFFFFF" stroke="#000000" stroke-width="4" stroke-miterlimit="10" width="53.3" height="53.3"/>
		<rect x="695.3" y="642" fill="#FFFFFF" stroke="#000000" stroke-width="4" stroke-miterlimit="10" width="53.3" height="53.3"/>
		<rect x="642" y="55.3" fill="#FFFFFF" stroke="#000000" stroke-width="4" stroke-miterlimit="10" width="53.3" height="53.3"/>
		<rect x="642" y="162" fill="#FFFFFF" stroke="#000000" stroke-width="4" stroke-miterlimit="10" width="53.3" height="53.3"/>
		<rect x="642" y="268.7" fill="#FFFFFF" stroke="#000000" stroke-width="4" stroke-miterlimit="10" width="53.3" height="53.3"/>
		<rect x="642" y="215.3" fill="#FFFFFF" stroke="#000000" stroke-width="4" stroke-miterlimit="10" width="53.3" height="53.3"/>
		<rect x="642" y="375.3" fill="#FFFFFF" stroke="#000000" stroke-width="4" stroke-miterlimit="10" width="53.3" height="53.3"/>
		<rect x="642" y="482" fill="#FFFFFF" stroke="#000000" stroke-width="4" stroke-miterlimit="10" width="53.3" height="53.3"/>
		<rect x="642" y="535.3" fill="#FFFFFF" stroke="#000000" stroke-width="4" stroke-miterlimit="10" width="53.3" height="53.3"/>
		<rect x="642" y="588.7" fill="#FFFFFF" stroke="#000000" stroke-width="4" stroke-miterlimit="10" width="53.3" height="53.3"/>
		<rect x="642" y="695.3" fill="#FFFFFF" stroke="#000000" stroke-width="4" stroke-miterlimit="10" width="53.3" height="53.3"/>
		<rect x="588.7" y="55.3" fill="#FFFFFF" stroke="#000000" stroke-width="4" stroke-miterlimit="10" width="53.3" height="53.3"/>
		<rect x="588.7" y="108.7" fill="#FFFFFF" stroke="#000000" stroke-width="4" stroke-miterlimit="10" width="53.3" height="53.3"/>
		<rect x="588.7" y="268.7" fill="#FFFFFF" stroke="#000000" stroke-width="4" stroke-miterlimit="10" width="53.3" height="53.3"/>
		<rect x="588.7" y="215.3" fill="#FFFFFF" stroke="#000000" stroke-width="4" stroke-miterlimit="10" width="53.3" height="53.3"/>
		<rect x="588.7" y="322" fill="#FFFFFF" stroke="#000000" stroke-width="4" stroke-miterlimit="10" width="53.3" height="53.3"/>
		<rect x="588.7" y="482" fill="#FFFFFF" stroke="#000000" stroke-width="4" stroke-miterlimit="10" width="53.3" height="53.3"/>
		<rect x="588.7" y="428.7" fill="#FFFFFF" stroke="#000000" stroke-width="4" stroke-miterlimit="10" width="53.3" height="53.3"/>
		<rect x="588.7" y="535.3" fill="#FFFFFF" stroke="#000000" stroke-width="4" stroke-miterlimit="10" width="53.3" height="53.3"/>
		<rect x="588.7" y="695.3" fill="#FFFFFF" stroke="#000000" stroke-width="4" stroke-miterlimit="10" width="53.3" height="53.3"/>
		<rect x="588.7" y="642" fill="#FFFFFF" stroke="#000000" stroke-width="4" stroke-miterlimit="10" width="53.3" height="53.3"/>
		<rect x="535.3" y="55.3" fill="#FFFFFF" stroke="#000000" stroke-width="4" stroke-miterlimit="10" width="53.3" height="53.3"/>
		<rect x="535.3" y="108.7" fill="#FFFFFF" stroke="#000000" stroke-width="4" stroke-miterlimit="10" width="53.3" height="53.3"/>
		<rect x="535.3" y="162" fill="#FFFFFF" stroke="#000000" stroke-width="4" stroke-miterlimit="10" width="53.3" height="53.3"/>
		<rect x="535.3" y="268.7" fill="#FFFFFF" stroke="#000000" stroke-width="4" stroke-miterlimit="10" width="53.3" height="53.3"/>
		<rect x="535.3" y="322" fill="#FFFFFF" stroke="#000000" stroke-width="4" stroke-miterlimit="10" width="53.3" height="53.3"/>
		<rect x="535.3" y="375.3" fill="#FFFFFF" stroke="#000000" stroke-width="4" stroke-miterlimit="10" width="53.3" height="53.3"/>
		<rect x="535.3" y="482" fill="#FFFFFF" stroke="#000000" stroke-width="4" stroke-miterlimit="10" width="53.3" height="53.3"/>
		<rect x="535.3" y="428.7" fill="#FFFFFF" stroke="#000000" stroke-width="4" stroke-miterlimit="10" width="53.3" height="53.3"/>
		<rect x="535.3" y="588.7" fill="#FFFFFF" stroke="#000000" stroke-width="4" stroke-miterlimit="10" width="53.3" height="53.3"/>
		<rect x="535.3" y="695.3" fill="#FFFFFF" stroke="#000000" stroke-width="4" stroke-miterlimit="10" width="53.3" height="53.3"/>
		<rect x="535.3" y="642" fill="#FFFFFF" stroke="#000000" stroke-width="4" stroke-miterlimit="10" width="53.3" height="53.3"/>
		<rect x="482" y="108.7" fill="#FFFFFF" stroke="#000000" stroke-width="4" stroke-miterlimit="10" width="53.3" height="53.3"/>
		<rect x="482" y="162" fill="#FFFFFF" stroke="#000000" stroke-width="4" stroke-miterlimit="10" width="53.3" height="53.3"/>
		<rect x="482" y="215.3" fill="#FFFFFF" stroke="#000000" stroke-width="4" stroke-miterlimit="10" width="53.3" height="53.3"/>
		<rect x="482" y="322" fill="#FFFFFF" stroke="#000000" stroke-width="4" stroke-miterlimit="10" width="53.3" height="53.3"/>
		<rect x="482" y="375.3" fill="#FFFFFF" stroke="#000000" stroke-width="4" stroke-miterlimit="10" width="53.3" height="53.3"/>
		<rect x="482" y="428.7" fill="#FFFFFF" stroke="#000000" stroke-width="4" stroke-miterlimit="10" width="53.3" height="53.3"/>
		<rect x="482" y="535.3" fill="#FFFFFF" stroke="#000000" stroke-width="4" stroke-miterlimit="10" width="53.3" height="53.3"/>
		<rect x="482" y="588.7" fill="#FFFFFF" stroke="#000000" stroke-width="4" stroke-miterlimit="10" width="53.3" height="53.3"/>
		<rect x="482" y="642" fill="#FFFFFF" stroke="#000000" stroke-width="4" stroke-miterlimit="10" width="53.3" height="53.3"/>
		<rect x="428.7" y="55.3" fill="#FFFFFF" stroke="#000000" stroke-width="4" stroke-miterlimit="10" width="53.3" height="53.3"/>
		<rect x="428.7" y="162" fill="#FFFFFF" stroke="#000000" stroke-width="4" stroke-miterlimit="10" width="53.3" height="53.3"/>
		<rect x="428.7" y="268.7" fill="#FFFFFF" stroke="#000000" stroke-width="4" stroke-miterlimit="10" width="53.3" height="53.3"/>
		<rect x="428.7" y="215.3" fill="#FFFFFF" stroke="#000000" stroke-width="4" stroke-miterlimit="10" width="53.3" height="53.3"/>
		<rect x="428.7" y="375.3" fill="#FFFFFF" stroke="#000000" stroke-width="4" stroke-miterlimit="10" width="53.3" height="53.3"/>
		<rect x="428.7" y="482" fill="#FFFFFF" stroke="#000000" stroke-width="4" stroke-miterlimit="10" width="53.3" height="53.3"/>
		<rect x="428.7" y="535.3" fill="#FFFFFF" stroke="#000000" stroke-width="4" stroke-miterlimit="10" width="53.3" height="53.3"/>
		<rect x="428.7" y="588.7" fill="#FFFFFF" stroke="#000000" stroke-width="4" stroke-miterlimit="10" width="53.3" height="53.3"/>
		<rect x="428.7" y="695.3" fill="#FFFFFF" stroke="#000000" stroke-width="4" stroke-miterlimit="10" width="53.3" height="53.3"/>
		<rect x="375.3" y="55.3" fill="#FFFFFF" stroke="#000000" stroke-width="4" stroke-miterlimit="10" width="53.3" height="53.3"/>
		<rect x="375.3" y="108.7" fill="#FFFFFF" stroke="#000000" stroke-width="4" stroke-miterlimit="10" width="53.3" height="53.3"/>
		<rect x="375.3" y="268.7" fill="#FFFFFF" stroke="#000000" stroke-width="4" stroke-miterlimit="10" width="53.3" height="53.3"/>
		<rect x="375.3" y="215.3" fill="#FFFFFF" stroke="#000000" stroke-width="4" stroke-miterlimit="10" width="53.3" height="53.3"/>
		<rect x="375.3" y="322" fill="#FFFFFF" stroke="#000000" stroke-width="4" stroke-miterlimit="10" width="53.3" height="53.3"/>
		<rect x="375.3" y="482" fill="#FFFFFF" stroke="#000000" stroke-width="4" stroke-miterlimit="10" width="53.3" height="53.3"/>
		<rect x="375.3" y="428.7" fill="#FFFFFF" stroke="#000000" stroke-width="4" stroke-miterlimit="10" width="53.3" height="53.3"/>
		<rect x="375.3" y="535.3" fill="#FFFFFF" stroke="#000000" stroke-width="4" stroke-miterlimit="10" width="53.3" height="53.3"/>
		<rect x="375.3" y="695.3" fill="#FFFFFF" stroke="#000000" stroke-width="4" stroke-miterlimit="10" width="53.3" height="53.3"/>
		<rect x="375.3" y="642" fill="#FFFFFF" stroke="#000000" stroke-width="4" stroke-miterlimit="10" width="53.3" height="53.3"/>
		<rect x="322" y="55.3" fill="#FFFFFF" stroke="#000000" stroke-width="4" stroke-miterlimit="10" width="53.3" height="53.3"/>
		<rect x="322" y="162" fill="#FFFFFF" stroke="#000000" stroke-width="4" stroke-miterlimit="10" width="53.3" height="53.3"/>
		<rect x="322" y="268.7" fill="#FFFFFF" stroke="#000000" stroke-width="4" stroke-miterlimit="10" width="53.3" height="53.3"/>
		<rect x="322" y="215.3" fill="#FFFFFF" stroke="#000000" stroke-width="4" stroke-miterlimit="10" width="53.3" height="53.3"/>
		<rect x="322" y="375.3" fill="#FFFFFF" stroke="#000000" stroke-width="4" stroke-miterlimit="10" width="53.3" height="53.3"/>
		<rect x="322" y="482" fill="#FFFFFF" stroke="#000000" stroke-width="4" stroke-miterlimit="10" width="53.3" height="53.3"/>
		<rect x="322" y="535.3" fill="#FFFFFF" stroke="#000000" stroke-width="4" stroke-miterlimit="10" width="53.3" height="53.3"/>
		<rect x="322" y="588.7" fill="#FFFFFF" stroke="#000000" stroke-width="4" stroke-miterlimit="10" width="53.3" height="53.3"/>
		<rect x="322" y="695.3" fill="#FFFFFF" stroke="#000000" stroke-width="4" stroke-miterlimit="10" width="53.3" height="53.3"/>
		<rect x="268.7" y="108.7" fill="#FFFFFF" stroke="#000000" stroke-width="4" stroke-miterlimit="10" width="53.3" height="53.3"/>
		<rect x="268.7" y="162" fill="#FFFFFF" stroke="#000000" stroke-width="4" stroke-miterlimit="10" width="53.3" height="53.3"/>
		<rect x="268.7" y="215.3" fill="#FFFFFF" stroke="#000000" stroke-width="4" stroke-miterlimit="10" width="53.3" height="53.3"/>
		<rect x="268.7" y="322" fill="#FFFFFF" stroke="#000000" stroke-width="4" stroke-miterlimit="10" width="53.3" height="53.3"/>
		<rect x="268.7" y="375.3" fill="#FFFFFF" stroke="#000000" stroke-width="4" stroke-miterlimit="10" width="53.3" height="53.3"/>
		<rect x="268.7" y="428.7" fill="#FFFFFF" stroke="#000000" stroke-width="4" stroke-miterlimit="10" width="53.3" height="53.3"/>
		<rect x="268.7" y="535.3" fill="#FFFFFF" stroke="#000000" stroke-width="4" stroke-miterlimit="10" width="53.3" height="53.3"/>
		<rect x="268.7" y="588.7" fill="#FFFFFF" stroke="#000000" stroke-width="4" stroke-miterlimit="10" width="53.3" height="53.3"/>
		<rect x="268.7" y="642" fill="#FFFFFF" stroke="#000000" stroke-width="4" stroke-miterlimit="10" width="53.3" height="53.3"/>
		<rect x="215.3" y="55.3" fill="#FFFFFF" stroke="#000000" stroke-width="4" stroke-miterlimit="10" width="53.3" height="53.3"/>
		<rect x="215.3" y="108.7" fill="#FFFFFF" stroke="#000000" stroke-width="4" stroke-miterlimit="10" width="53.3" height="53.3"/>
		<rect x="215.3" y="162" fill="#FFFFFF" stroke="#000000" stroke-width="4" stroke-miterlimit="10" width="53.3" height="53.3"/>
		<rect x="215.3" y="268.7" fill="#FFFFFF" stroke="#000000" stroke-width="4" stroke-miterlimit="10" width="53.3" height="53.3"/>
		<rect x="215.3" y="322" fill="#FFFFFF" stroke="#000000" stroke-width="4" stroke-miterlimit="10" width="53.3" height="53.3"/>
		<rect x="215.3" y="375.3" fill="#FFFFFF" stroke="#000000" stroke-width="4" stroke-miterlimit="10" width="53.3" height="53.3"/>
		<rect x="215.3" y="482" fill="#FFFFFF" stroke="#000000" stroke-width="4" stroke-miterlimit="10" width="53.3" height="53.3"/>
		<rect x="215.3" y="428.7" fill="#FFFFFF" stroke="#000000" stroke-width="4" stroke-miterlimit="10" width="53.3" height="53.3"/>
		<rect x="215.3" y="588.7" fill="#FFFFFF" stroke="#000000" stroke-width="4" stroke-miterlimit="10" width="53.3" height="53.3"/>
		<rect x="215.3" y="695.3" fill="#FFFFFF" stroke="#000000" stroke-width="4" stroke-miterlimit="10" width="53.3" height="53.3"/>
		<rect x="215.3" y="642" fill="#FFFFFF" stroke="#000000" stroke-width="4" stroke-miterlimit="10" width="53.3" height="53.3"/>
		<rect x="162" y="55.3" fill="#FFFFFF" stroke="#000000" stroke-width="4" stroke-miterlimit="10" width="53.3" height="53.3"/>
		<rect x="162" y="108.7" fill="#FFFFFF" stroke="#000000" stroke-width="4" stroke-miterlimit="10" width="53.3" height="53.3"/>
		<rect x="162" y="268.7" fill="#FFFFFF" stroke="#000000" stroke-width="4" stroke-miterlimit="10" width="53.3" height="53.3"/>
		<rect x="162" y="215.3" fill="#FFFFFF" stroke="#000000" stroke-width="4" stroke-miterlimit="10" width="53.3" height="53.3"/>
		<rect x="162" y="322" fill="#FFFFFF" stroke="#000000" stroke-width="4" stroke-miterlimit="10" width="53.3" height="53.3"/>
		<rect x="162" y="482" fill="#FFFFFF" stroke="#000000" stroke-width="4" stroke-miterlimit="10" width="53.3" height="53.3"/>
		<rect x="162" y="428.7" fill="#FFFFFF" stroke="#000000" stroke-width="4" stroke-miterlimit="10" width="53.3" height="53.3"/>
		<rect x="162" y="535.3" fill="#FFFFFF" stroke="#000000" stroke-width="4" stroke-miterlimit="10" width="53.3" height="53.3"/>
		<rect x="162" y="695.3" fill="#FFFFFF" stroke="#000000" stroke-width="4" stroke-miterlimit="10" width="53.3" height="53.3"/>
		<rect x="162" y="642" fill="#FFFFFF" stroke="#000000" stroke-width="4" stroke-miterlimit="10" width="53.3" height="53.3"/>
		<rect x="108.7" y="55.3" fill="#FFFFFF" stroke="#000000" stroke-width="4" stroke-miterlimit="10" width="53.3" height="53.3"/>
		<rect x="108.7" y="162" fill="#FFFFFF" stroke="#000000" stroke-width="4" stroke-miterlimit="10" width="53.3" height="53.3"/>
		<rect x="108.7" y="268.7" fill="#FFFFFF" stroke="#000000" stroke-width="4" stroke-miterlimit="10" width="53.3" height="53.3"/>
		<rect x="108.7" y="215.3" fill="#FFFFFF" stroke="#000000" stroke-width="4" stroke-miterlimit="10" width="53.3" height="53.3"/>
		<rect x="108.7" y="375.3" fill="#FFFFFF" stroke="#000000" stroke-width="4" stroke-miterlimit="10" width="53.3" height="53.3"/>
		<rect x="108.7" y="482" fill="#FFFFFF" stroke="#000000" stroke-width="4" stroke-miterlimit="10" width="53.3" height="53.3"/>
		<rect x="108.7" y="535.3" fill="#FFFFFF" stroke="#000000" stroke-width="4" stroke-miterlimit="10" width="53.3" height="53.3"/>
		<rect x="108.7" y="588.7" fill="#FFFFFF" stroke="#000000" stroke-width="4" stroke-miterlimit="10" width="53.3" height="53.3"/>
		<rect x="108.7" y="695.3" fill="#FFFFFF" stroke="#000000" stroke-width="4" stroke-miterlimit="10" width="53.3" height="53.3"/>
		<rect x="55.3" y="108.7" fill="#FFFFFF" stroke="#000000" stroke-width="4" stroke-miterlimit="10" width="53.3" height="53.3"/>
		<rect x="55.3" y="162" fill="#FFFFFF" stroke="#000000" stroke-width="4" stroke-miterlimit="10" width="53.3" height="53.3"/>
		<rect x="55.3" y="215.3" fill="#FFFFFF" stroke="#000000" stroke-width="4" stroke-miterlimit="10" width="53.3" height="53.3"/>
		<rect x="55.3" y="322" fill="#FFFFFF" stroke="#000000" stroke-width="4" stroke-miterlimit="10" width="53.3" height="53.3"/>
		<rect x="55.3" y="375.3" fill="#FFFFFF" stroke="#000000" stroke-width="4" stroke-miterlimit="10" width="53.3" height="53.3"/>
		<rect x="55.3" y="428.7" fill="#FFFFFF" stroke="#000000" stroke-width="4" stroke-miterlimit="10" width="53.3" height="53.3"/>
		<rect x="55.3" y="535.3" fill="#FFFFFF" stroke="#000000" stroke-width="4" stroke-miterlimit="10" width="53.3" height="53.3"/>
		<rect x="55.3" y="588.7" fill="#FFFFFF" stroke="#000000" stroke-width="4" stroke-miterlimit="10" width="53.3" height="53.3"/>
		<rect x="55.3" y="642" fill="#FFFFFF" stroke="#000000" stroke-width="4" stroke-miterlimit="10" width="53.3" height="53.3"/>
	</g>
</g>
</svg>
