<?xml version="1.0" encoding="utf-8"?>
<!-- Generator: Adobe Illustrator 15.1.0, SVG Export Plug-In . SVG Version: 6.00 Build 0)  -->
<!DOCTYPE svg PUBLIC "-//W3C//DTD SVG 1.1//EN" "http://www.w3.org/Graphics/SVG/1.1/DTD/svg11.dtd">
<svg version="1.1" id="Layer_2" xmlns="http://www.w3.org/2000/svg" xmlns:xlink="http://www.w3.org/1999/xlink" x="0px" y="0px"
	 width="804px" height="723px" viewBox="0 0 804 723" enable-background="new 0 0 804 723" xml:space="preserve">
<polygon stroke="#000000" stroke-width="4" stroke-linejoin="round" stroke-miterlimit="10" points="373.4,31 316.3,31 344.9,279 
	"/>
<polygon fill="none" stroke="#000000" stroke-width="4" stroke-linejoin="round" stroke-miterlimit="10" points="316.3,31 259.1,31 
	287.7,279 "/>
<polygon stroke="#000000" stroke-width="4" stroke-linejoin="round" stroke-miterlimit="10" points="259.1,31 202,31 230.6,279 "/>
<polygon fill="none" stroke="#000000" stroke-width="4" stroke-linejoin="round" stroke-miterlimit="10" points="202,31 144.9,31 
	173.4,279 "/>
<polygon stroke="#000000" stroke-width="4" stroke-linejoin="round" stroke-miterlimit="10" points="144.9,31 87.7,31 116.3,279 "/>
<polygon fill="none" stroke="#000000" stroke-width="4" stroke-linejoin="round" stroke-miterlimit="10" points="87.7,31 30.6,31 
	59.1,279 "/>
<polygon stroke="#000000" stroke-width="4" stroke-linejoin="round" stroke-miterlimit="10" points="30.6,691.5 87.7,691.5 
	59.1,443.5 "/>
<polygon fill="none" stroke="#000000" stroke-width="4" stroke-linejoin="round" stroke-miterlimit="10" points="87.7,691.5 
	144.9,691.5 116.3,443.5 "/>
<polygon stroke="#000000" stroke-width="4" stroke-linejoin="round" stroke-miterlimit="10" points="144.9,691.5 202,691.5 
	173.4,443.5 "/>
<polygon fill="none" stroke="#000000" stroke-width="4" stroke-linejoin="round" stroke-miterlimit="10" points="202,691.5 
	259.1,691.5 230.6,443.5 "/>
<polygon stroke="#000000" stroke-width="4" stroke-linejoin="round" stroke-miterlimit="10" points="259.1,691.5 316.3,691.5 
	287.7,443.5 "/>
<polygon fill="none" stroke="#000000" stroke-width="4" stroke-linejoin="round" stroke-miterlimit="10" points="316.3,691.5 
	373.4,691.5 344.9,443.5 "/>
<polygon stroke="#000000" stroke-width="4" stroke-linejoin="round" stroke-miterlimit="10" points="773,31 715.9,31 744.4,279 "/>
<polygon fill="none" stroke="#000000" stroke-width="4" stroke-linejoin="round" stroke-miterlimit="10" points="716,31 658.9,31 
	687.5,279 "/>
<polygon stroke="#000000" stroke-width="4" stroke-linejoin="round" stroke-miterlimit="10" points="659.1,31 601.9,31 630.5,279 
	"/>
<polygon fill="none" stroke="#000000" stroke-width="4" stroke-linejoin="round" stroke-miterlimit="10" points="602.1,31 544.9,31 
	573.5,279 "/>
<polygon stroke="#000000" stroke-width="4" stroke-linejoin="round" stroke-miterlimit="10" points="545.1,31 488,31 516.5,279 "/>
<polygon fill="none" stroke="#000000" stroke-width="4" stroke-linejoin="round" stroke-miterlimit="10" points="488.1,31 431,31 
	459.6,279 "/>
<polygon stroke="#000000" stroke-width="4" stroke-linejoin="round" stroke-miterlimit="10" points="431,691.5 488.1,691.5 
	459.6,443.5 "/>
<polygon fill="none" stroke="#000000" stroke-width="4" stroke-linejoin="round" stroke-miterlimit="10" points="488,691.5 
	545.1,691.5 516.5,443.5 "/>
<polygon stroke="#000000" stroke-width="4" stroke-linejoin="round" stroke-miterlimit="10" points="544.9,691.5 602.1,691.5 
	573.5,443.5 "/>
<polygon fill="none" stroke="#000000" stroke-width="4" stroke-linejoin="round" stroke-miterlimit="10" points="601.9,691.5 
	659.1,691.5 630.5,443.5 "/>
<polygon stroke="#000000" stroke-width="4" stroke-linejoin="round" stroke-miterlimit="10" points="658.9,691.5 716,691.5 
	687.5,443.5 "/>
<polygon fill="none" stroke="#000000" stroke-width="4" stroke-linejoin="round" stroke-miterlimit="10" points="715.9,691.5 
	773,691.5 744.4,443.5 "/>
<polygon fill="none" stroke="#000000" stroke-width="4" stroke-miterlimit="10" points="773.4,2 430.6,2 373.4,2 30.6,2 2,2 2,2 
	2,720.5 2,721 30.6,721 373.4,721 430.6,721 773.4,721 802,721 802,691.9 802,30.6 802,2 "/>
<rect x="31" y="31" fill="none" stroke="#000000" stroke-width="4" stroke-miterlimit="10" width="342" height="661"/>
<rect x="431" y="31" fill="none" stroke="#000000" stroke-width="4" stroke-miterlimit="10" width="342" height="661"/>
</svg>
