<?xml version="1.0" encoding="utf-8"?>
<!-- Generator: Adobe Illustrator 15.1.0, SVG Export Plug-In . SVG Version: 6.00 Build 0)  -->
<!DOCTYPE svg PUBLIC "-//W3C//DTD SVG 1.1//EN" "http://www.w3.org/Graphics/SVG/1.1/DTD/svg11.dtd">
<svg version="1.1" id="chiche" xmlns="http://www.w3.org/2000/svg" xmlns:xlink="http://www.w3.org/1999/xlink" x="0px" y="0px"
	 width="804px" height="804px" viewBox="0 0 804 804" enable-background="new 0 0 804 804" xml:space="preserve">
<rect x="2" y="2" fill="#FFFFFF" stroke="#000000" stroke-width="4" stroke-miterlimit="10" width="800" height="800"/>
<rect x="55.9" y="55.8" fill="#FFFFFF" stroke="#000000" stroke-width="4" stroke-miterlimit="10" width="693.3" height="693.3"/>
<line fill="none" stroke="#000000" stroke-width="4" stroke-miterlimit="10" x1="142.5" y1="55.8" x2="142.5" y2="749.1"/>
<line fill="none" stroke="#000000" stroke-width="4" stroke-miterlimit="10" x1="229.2" y1="55.8" x2="229.2" y2="749.1"/>
<line fill="none" stroke="#000000" stroke-width="4" stroke-miterlimit="10" x1="402.5" y1="55.8" x2="402.5" y2="749.1"/>
<line fill="none" stroke="#000000" stroke-width="4" stroke-miterlimit="10" x1="662.5" y1="55.8" x2="662.5" y2="749.1"/>
<line fill="none" stroke="#000000" stroke-width="4" stroke-miterlimit="10" x1="749.2" y1="142.5" x2="55.9" y2="142.5"/>
<line fill="none" stroke="#000000" stroke-width="4" stroke-miterlimit="10" x1="315" y1="229.5" x2="489" y2="55.5"/>
<line fill="none" stroke="#000000" stroke-width="4" stroke-miterlimit="10" x1="315" y1="55.5" x2="489" y2="229.5"/>
<g>
	<line fill="none" stroke="#000000" stroke-width="4" stroke-miterlimit="10" x1="153.7" y1="240.8" x2="130.3" y2="217.4"/>
	<line fill="none" stroke="#000000" stroke-width="4" stroke-miterlimit="10" x1="130.3" y1="240.8" x2="153.7" y2="217.4"/>
</g>
<g>
	<line fill="none" stroke="#000000" stroke-width="4" stroke-miterlimit="10" x1="673.7" y1="240.8" x2="650.3" y2="217.4"/>
	<line fill="none" stroke="#000000" stroke-width="4" stroke-miterlimit="10" x1="650.3" y1="240.8" x2="673.7" y2="217.4"/>
</g>
<g>
	<line fill="none" stroke="#000000" stroke-width="4" stroke-miterlimit="10" x1="240.5" y1="327.9" x2="217.1" y2="304.5"/>
	<line fill="none" stroke="#000000" stroke-width="4" stroke-miterlimit="10" x1="217.1" y1="327.9" x2="240.5" y2="304.5"/>
</g>
<g>
	<line fill="none" stroke="#000000" stroke-width="4" stroke-miterlimit="10" x1="413.7" y1="327.9" x2="390.3" y2="304.5"/>
	<line fill="none" stroke="#000000" stroke-width="4" stroke-miterlimit="10" x1="390.3" y1="327.9" x2="413.7" y2="304.5"/>
</g>
<g>
	<line fill="none" stroke="#000000" stroke-width="4" stroke-miterlimit="10" x1="587" y1="327.9" x2="563.6" y2="304.5"/>
	<line fill="none" stroke="#000000" stroke-width="4" stroke-miterlimit="10" x1="563.6" y1="327.9" x2="587" y2="304.5"/>
</g>
<g>
	<line fill="none" stroke="#000000" stroke-width="4" stroke-miterlimit="10" x1="650.3" y1="564.1" x2="673.7" y2="587.5"/>
	<line fill="none" stroke="#000000" stroke-width="4" stroke-miterlimit="10" x1="673.7" y1="564.1" x2="650.3" y2="587.5"/>
</g>
<g>
	<line fill="none" stroke="#000000" stroke-width="4" stroke-miterlimit="10" x1="130.3" y1="564.1" x2="153.7" y2="587.5"/>
	<line fill="none" stroke="#000000" stroke-width="4" stroke-miterlimit="10" x1="153.7" y1="564.1" x2="130.3" y2="587.5"/>
</g>
<g>
	<line fill="none" stroke="#000000" stroke-width="4" stroke-miterlimit="10" x1="563.6" y1="477.5" x2="587" y2="500.9"/>
	<line fill="none" stroke="#000000" stroke-width="4" stroke-miterlimit="10" x1="587" y1="477.5" x2="563.6" y2="500.9"/>
</g>
<g>
	<line fill="none" stroke="#000000" stroke-width="4" stroke-miterlimit="10" x1="390.3" y1="477.5" x2="413.7" y2="500.9"/>
	<line fill="none" stroke="#000000" stroke-width="4" stroke-miterlimit="10" x1="413.7" y1="477.5" x2="390.3" y2="500.9"/>
</g>
<g>
	<line fill="none" stroke="#000000" stroke-width="4" stroke-miterlimit="10" x1="217.1" y1="477.5" x2="240.5" y2="500.9"/>
	<line fill="none" stroke="#000000" stroke-width="4" stroke-miterlimit="10" x1="240.5" y1="477.5" x2="217.1" y2="500.9"/>
</g>
<g>
	<line fill="none" stroke="#000000" stroke-width="4" stroke-miterlimit="10" x1="67" y1="327.9" x2="55.3" y2="316.2"/>
	<line fill="none" stroke="#000000" stroke-width="4" stroke-miterlimit="10" x1="55.3" y1="316.2" x2="67" y2="304.5"/>
</g>
<g>
	<line fill="none" stroke="#000000" stroke-width="4" stroke-miterlimit="10" x1="748.7" y1="316.2" x2="737" y2="304.5"/>
	<line fill="none" stroke="#000000" stroke-width="4" stroke-miterlimit="10" x1="737" y1="327.9" x2="748.7" y2="316.2"/>
</g>
<g>
	<line fill="none" stroke="#000000" stroke-width="4" stroke-miterlimit="10" x1="737" y1="477.5" x2="748.7" y2="489.2"/>
	<line fill="none" stroke="#000000" stroke-width="4" stroke-miterlimit="10" x1="748.7" y1="489.2" x2="737" y2="500.9"/>
</g>
<g>
	<line fill="none" stroke="#000000" stroke-width="4" stroke-miterlimit="10" x1="55.3" y1="489.2" x2="67" y2="500.9"/>
	<line fill="none" stroke="#000000" stroke-width="4" stroke-miterlimit="10" x1="67" y1="477.5" x2="55.3" y2="489.2"/>
</g>
<line fill="none" stroke="#000000" stroke-width="4" stroke-miterlimit="10" x1="749.2" y1="315.8" x2="55.9" y2="315.8"/>
<line fill="none" stroke="#000000" stroke-width="4" stroke-miterlimit="10" x1="749.2" y1="402.5" x2="55.9" y2="402.5"/>
<line fill="none" stroke="#000000" stroke-width="4" stroke-miterlimit="10" x1="749.2" y1="489.1" x2="55.9" y2="489.1"/>
<line fill="none" stroke="#000000" stroke-width="4" stroke-miterlimit="10" x1="315" y1="229" x2="315" y2="575"/>
<line fill="none" stroke="#000000" stroke-width="4" stroke-miterlimit="10" x1="315" y1="749" x2="315" y2="575"/>
<line fill="none" stroke="#000000" stroke-width="4" stroke-miterlimit="10" x1="315" y1="55" x2="315" y2="229"/>
<line fill="none" stroke="#000000" stroke-width="4" stroke-miterlimit="10" x1="489" y1="749" x2="489" y2="575"/>
<line fill="none" stroke="#000000" stroke-width="4" stroke-miterlimit="10" x1="489" y1="55" x2="489" y2="229"/>
<line fill="none" stroke="#000000" stroke-width="4" stroke-miterlimit="10" x1="489" y1="229" x2="489" y2="575"/>
<line fill="none" stroke="#000000" stroke-width="4" stroke-miterlimit="10" x1="490" y1="230" x2="316" y2="230"/>
<line fill="none" stroke="#000000" stroke-width="4" stroke-miterlimit="10" x1="316" y1="230" x2="56" y2="230"/>
<line fill="none" stroke="#000000" stroke-width="4" stroke-miterlimit="10" x1="750" y1="230" x2="490" y2="230"/>
<line fill="none" stroke="#000000" stroke-width="4" stroke-miterlimit="10" x1="316" y1="576" x2="490" y2="576"/>
<line fill="none" stroke="#000000" stroke-width="4" stroke-miterlimit="10" x1="490" y1="576" x2="750" y2="576"/>
<line fill="none" stroke="#000000" stroke-width="4" stroke-miterlimit="10" x1="56" y1="576" x2="316" y2="576"/>
<line fill="none" stroke="#000000" stroke-width="4" stroke-miterlimit="10" x1="749.2" y1="662.5" x2="55.9" y2="662.5"/>
<line fill="none" stroke="#000000" stroke-width="4" stroke-miterlimit="10" x1="575.9" y1="55.8" x2="575.9" y2="749.1"/>
<line fill="none" stroke="#000000" stroke-width="4" stroke-miterlimit="10" x1="315" y1="749.1" x2="489" y2="575.1"/>
<line fill="none" stroke="#000000" stroke-width="4" stroke-miterlimit="10" x1="315" y1="575.1" x2="489" y2="749.1"/>
</svg>
