<?xml version="1.0" encoding="utf-8"?>
<!-- Generator: Adobe Illustrator 15.1.0, SVG Export Plug-In . SVG Version: 6.00 Build 0)  -->
<!DOCTYPE svg PUBLIC "-//W3C//DTD SVG 1.1//EN" "http://www.w3.org/Graphics/SVG/1.1/DTD/svg11.dtd">
<svg version="1.1" id="stratego" xmlns="http://www.w3.org/2000/svg" xmlns:xlink="http://www.w3.org/1999/xlink" x="0px" y="0px"
	 width="804px" height="804px" viewBox="0 0 804 804" enable-background="new 0 0 804 804" xml:space="preserve">
<rect x="2" y="2" fill="#FFFFFF" stroke="#000000" stroke-width="4" stroke-miterlimit="10" width="800" height="800"/>
<rect x="682" y="682" fill="#FFFFFF" stroke="#000000" stroke-width="4" stroke-miterlimit="10" width="70" height="70"/>
<rect x="682" y="612" fill="#FFFFFF" stroke="#000000" stroke-width="4" stroke-miterlimit="10" width="70" height="70"/>
<rect x="682" y="542" fill="#FFFFFF" stroke="#000000" stroke-width="4" stroke-miterlimit="10" width="70" height="70"/>
<rect x="682" y="472" fill="#FFFFFF" stroke="#000000" stroke-width="4" stroke-miterlimit="10" width="70" height="70"/>
<rect x="682" y="402" fill="#FFFFFF" stroke="#000000" stroke-width="4" stroke-miterlimit="10" width="70" height="70"/>
<rect x="682" y="332" fill="#FFFFFF" stroke="#000000" stroke-width="4" stroke-miterlimit="10" width="70" height="70"/>
<rect x="682" y="262" fill="#FFFFFF" stroke="#000000" stroke-width="4" stroke-miterlimit="10" width="70" height="70"/>
<rect x="682" y="192" fill="#FFFFFF" stroke="#000000" stroke-width="4" stroke-miterlimit="10" width="70" height="70"/>
<rect x="682" y="122" fill="#FFFFFF" stroke="#000000" stroke-width="4" stroke-miterlimit="10" width="70" height="70"/>
<rect x="682" y="52" fill="#FFFFFF" stroke="#000000" stroke-width="4" stroke-miterlimit="10" width="70" height="70"/>
<rect x="612" y="682" fill="#FFFFFF" stroke="#000000" stroke-width="4" stroke-miterlimit="10" width="70" height="70"/>
<rect x="612" y="612" fill="#FFFFFF" stroke="#000000" stroke-width="4" stroke-miterlimit="10" width="70" height="70"/>
<rect x="612" y="542" fill="#FFFFFF" stroke="#000000" stroke-width="4" stroke-miterlimit="10" width="70" height="70"/>
<rect x="612" y="472" fill="#FFFFFF" stroke="#000000" stroke-width="4" stroke-miterlimit="10" width="70" height="70"/>
<rect x="612" y="402" fill="#FFFFFF" stroke="#000000" stroke-width="4" stroke-miterlimit="10" width="70" height="70"/>
<rect x="612" y="332" fill="#FFFFFF" stroke="#000000" stroke-width="4" stroke-miterlimit="10" width="70" height="70"/>
<rect x="612" y="262" fill="#FFFFFF" stroke="#000000" stroke-width="4" stroke-miterlimit="10" width="70" height="70"/>
<rect x="612" y="192" fill="#FFFFFF" stroke="#000000" stroke-width="4" stroke-miterlimit="10" width="70" height="70"/>
<rect x="612" y="122" fill="#FFFFFF" stroke="#000000" stroke-width="4" stroke-miterlimit="10" width="70" height="70"/>
<rect x="612" y="52" fill="#FFFFFF" stroke="#000000" stroke-width="4" stroke-miterlimit="10" width="70" height="70"/>
<rect x="542" y="682" fill="#FFFFFF" stroke="#000000" stroke-width="4" stroke-miterlimit="10" width="70" height="70"/>
<rect x="542" y="612" fill="#FFFFFF" stroke="#000000" stroke-width="4" stroke-miterlimit="10" width="70" height="70"/>
<rect x="542" y="542" fill="#FFFFFF" stroke="#000000" stroke-width="4" stroke-miterlimit="10" width="70" height="70"/>
<rect x="542" y="472" fill="#FFFFFF" stroke="#000000" stroke-width="4" stroke-miterlimit="10" width="70" height="70"/>
<rect x="542" y="262" fill="#FFFFFF" stroke="#000000" stroke-width="4" stroke-miterlimit="10" width="70" height="70"/>
<rect x="542" y="192" fill="#FFFFFF" stroke="#000000" stroke-width="4" stroke-miterlimit="10" width="70" height="70"/>
<rect x="542" y="122" fill="#FFFFFF" stroke="#000000" stroke-width="4" stroke-miterlimit="10" width="70" height="70"/>
<rect x="542" y="52" fill="#FFFFFF" stroke="#000000" stroke-width="4" stroke-miterlimit="10" width="70" height="70"/>
<rect x="472" y="682" fill="#FFFFFF" stroke="#000000" stroke-width="4" stroke-miterlimit="10" width="70" height="70"/>
<rect x="472" y="612" fill="#FFFFFF" stroke="#000000" stroke-width="4" stroke-miterlimit="10" width="70" height="70"/>
<rect x="472" y="542" fill="#FFFFFF" stroke="#000000" stroke-width="4" stroke-miterlimit="10" width="70" height="70"/>
<rect x="472" y="472" fill="#FFFFFF" stroke="#000000" stroke-width="4" stroke-miterlimit="10" width="70" height="70"/>
<rect x="472" y="332" stroke="#000000" stroke-width="4" stroke-miterlimit="10" width="140" height="140"/>
<rect x="472" y="262" fill="#FFFFFF" stroke="#000000" stroke-width="4" stroke-miterlimit="10" width="70" height="70"/>
<rect x="472" y="192" fill="#FFFFFF" stroke="#000000" stroke-width="4" stroke-miterlimit="10" width="70" height="70"/>
<rect x="472" y="122" fill="#FFFFFF" stroke="#000000" stroke-width="4" stroke-miterlimit="10" width="70" height="70"/>
<rect x="472" y="52" fill="#FFFFFF" stroke="#000000" stroke-width="4" stroke-miterlimit="10" width="70" height="70"/>
<rect x="402" y="682" fill="#FFFFFF" stroke="#000000" stroke-width="4" stroke-miterlimit="10" width="70" height="70"/>
<rect x="402" y="612" fill="#FFFFFF" stroke="#000000" stroke-width="4" stroke-miterlimit="10" width="70" height="70"/>
<rect x="402" y="542" fill="#FFFFFF" stroke="#000000" stroke-width="4" stroke-miterlimit="10" width="70" height="70"/>
<rect x="402" y="472" fill="#FFFFFF" stroke="#000000" stroke-width="4" stroke-miterlimit="10" width="70" height="70"/>
<rect x="402" y="402" fill="#FFFFFF" stroke="#000000" stroke-width="4" stroke-miterlimit="10" width="70" height="70"/>
<rect x="402" y="332" fill="#FFFFFF" stroke="#000000" stroke-width="4" stroke-miterlimit="10" width="70" height="70"/>
<rect x="402" y="262" fill="#FFFFFF" stroke="#000000" stroke-width="4" stroke-miterlimit="10" width="70" height="70"/>
<rect x="402" y="192" fill="#FFFFFF" stroke="#000000" stroke-width="4" stroke-miterlimit="10" width="70" height="70"/>
<rect x="402" y="122" fill="#FFFFFF" stroke="#000000" stroke-width="4" stroke-miterlimit="10" width="70" height="70"/>
<rect x="402" y="52" fill="#FFFFFF" stroke="#000000" stroke-width="4" stroke-miterlimit="10" width="70" height="70"/>
<rect x="332" y="682" fill="#FFFFFF" stroke="#000000" stroke-width="4" stroke-miterlimit="10" width="70" height="70"/>
<rect x="332" y="612" fill="#FFFFFF" stroke="#000000" stroke-width="4" stroke-miterlimit="10" width="70" height="70"/>
<rect x="332" y="542" fill="#FFFFFF" stroke="#000000" stroke-width="4" stroke-miterlimit="10" width="70" height="70"/>
<rect x="332" y="472" fill="#FFFFFF" stroke="#000000" stroke-width="4" stroke-miterlimit="10" width="70" height="70"/>
<rect x="332" y="402" fill="#FFFFFF" stroke="#000000" stroke-width="4" stroke-miterlimit="10" width="70" height="70"/>
<rect x="332" y="332" fill="#FFFFFF" stroke="#000000" stroke-width="4" stroke-miterlimit="10" width="70" height="70"/>
<rect x="332" y="262" fill="#FFFFFF" stroke="#000000" stroke-width="4" stroke-miterlimit="10" width="70" height="70"/>
<rect x="332" y="192" fill="#FFFFFF" stroke="#000000" stroke-width="4" stroke-miterlimit="10" width="70" height="70"/>
<rect x="332" y="122" fill="#FFFFFF" stroke="#000000" stroke-width="4" stroke-miterlimit="10" width="70" height="70"/>
<rect x="332" y="52" fill="#FFFFFF" stroke="#000000" stroke-width="4" stroke-miterlimit="10" width="70" height="70"/>
<rect x="262" y="682" fill="#FFFFFF" stroke="#000000" stroke-width="4" stroke-miterlimit="10" width="70" height="70"/>
<rect x="262" y="612" fill="#FFFFFF" stroke="#000000" stroke-width="4" stroke-miterlimit="10" width="70" height="70"/>
<rect x="262" y="542" fill="#FFFFFF" stroke="#000000" stroke-width="4" stroke-miterlimit="10" width="70" height="70"/>
<rect x="262" y="472" fill="#FFFFFF" stroke="#000000" stroke-width="4" stroke-miterlimit="10" width="70" height="70"/>
<rect x="192" y="332" stroke="#000000" stroke-width="4" stroke-miterlimit="10" width="140" height="140"/>
<rect x="262" y="262" fill="#FFFFFF" stroke="#000000" stroke-width="4" stroke-miterlimit="10" width="70" height="70"/>
<rect x="262" y="192" fill="#FFFFFF" stroke="#000000" stroke-width="4" stroke-miterlimit="10" width="70" height="70"/>
<rect x="262" y="122" fill="#FFFFFF" stroke="#000000" stroke-width="4" stroke-miterlimit="10" width="70" height="70"/>
<rect x="262" y="52" fill="#FFFFFF" stroke="#000000" stroke-width="4" stroke-miterlimit="10" width="70" height="70"/>
<rect x="192" y="682" fill="#FFFFFF" stroke="#000000" stroke-width="4" stroke-miterlimit="10" width="70" height="70"/>
<rect x="192" y="612" fill="#FFFFFF" stroke="#000000" stroke-width="4" stroke-miterlimit="10" width="70" height="70"/>
<rect x="192" y="542" fill="#FFFFFF" stroke="#000000" stroke-width="4" stroke-miterlimit="10" width="70" height="70"/>
<rect x="192" y="472" fill="#FFFFFF" stroke="#000000" stroke-width="4" stroke-miterlimit="10" width="70" height="70"/>
<rect x="192" y="262" fill="#FFFFFF" stroke="#000000" stroke-width="4" stroke-miterlimit="10" width="70" height="70"/>
<rect x="192" y="192" fill="#FFFFFF" stroke="#000000" stroke-width="4" stroke-miterlimit="10" width="70" height="70"/>
<rect x="192" y="122" fill="#FFFFFF" stroke="#000000" stroke-width="4" stroke-miterlimit="10" width="70" height="70"/>
<rect x="192" y="52" fill="#FFFFFF" stroke="#000000" stroke-width="4" stroke-miterlimit="10" width="70" height="70"/>
<rect x="122" y="682" fill="#FFFFFF" stroke="#000000" stroke-width="4" stroke-miterlimit="10" width="70" height="70"/>
<rect x="122" y="612" fill="#FFFFFF" stroke="#000000" stroke-width="4" stroke-miterlimit="10" width="70" height="70"/>
<rect x="122" y="542" fill="#FFFFFF" stroke="#000000" stroke-width="4" stroke-miterlimit="10" width="70" height="70"/>
<rect x="122" y="472" fill="#FFFFFF" stroke="#000000" stroke-width="4" stroke-miterlimit="10" width="70" height="70"/>
<rect x="122" y="402" fill="#FFFFFF" stroke="#000000" stroke-width="4" stroke-miterlimit="10" width="70" height="70"/>
<rect x="122" y="332" fill="#FFFFFF" stroke="#000000" stroke-width="4" stroke-miterlimit="10" width="70" height="70"/>
<rect x="122" y="262" fill="#FFFFFF" stroke="#000000" stroke-width="4" stroke-miterlimit="10" width="70" height="70"/>
<rect x="122" y="192" fill="#FFFFFF" stroke="#000000" stroke-width="4" stroke-miterlimit="10" width="70" height="70"/>
<rect x="122" y="122" fill="#FFFFFF" stroke="#000000" stroke-width="4" stroke-miterlimit="10" width="70" height="70"/>
<rect x="122" y="52" fill="#FFFFFF" stroke="#000000" stroke-width="4" stroke-miterlimit="10" width="70" height="70"/>
<rect x="52" y="682" fill="#FFFFFF" stroke="#000000" stroke-width="4" stroke-miterlimit="10" width="70" height="70"/>
<rect x="52" y="612" fill="#FFFFFF" stroke="#000000" stroke-width="4" stroke-miterlimit="10" width="70" height="70"/>
<rect x="52" y="542" fill="#FFFFFF" stroke="#000000" stroke-width="4" stroke-miterlimit="10" width="70" height="70"/>
<rect x="52" y="472" fill="#FFFFFF" stroke="#000000" stroke-width="4" stroke-miterlimit="10" width="70" height="70"/>
<rect x="52" y="402" fill="#FFFFFF" stroke="#000000" stroke-width="4" stroke-miterlimit="10" width="70" height="70"/>
<rect x="52" y="332" fill="#FFFFFF" stroke="#000000" stroke-width="4" stroke-miterlimit="10" width="70" height="70"/>
<rect x="52" y="262" fill="#FFFFFF" stroke="#000000" stroke-width="4" stroke-miterlimit="10" width="70" height="70"/>
<rect x="52" y="192" fill="#FFFFFF" stroke="#000000" stroke-width="4" stroke-miterlimit="10" width="70" height="70"/>
<rect x="52" y="122" fill="#FFFFFF" stroke="#000000" stroke-width="4" stroke-miterlimit="10" width="70" height="70"/>
<rect x="52" y="52" fill="#FFFFFF" stroke="#000000" stroke-width="4" stroke-miterlimit="10" width="70" height="70"/>
</svg>
