<?xml version="1.0" encoding="utf-8"?>
<!-- Generator: Adobe Illustrator 15.1.0, SVG Export Plug-In . SVG Version: 6.00 Build 0)  -->
<!DOCTYPE svg PUBLIC "-//W3C//DTD SVG 1.1//EN" "http://www.w3.org/Graphics/SVG/1.1/DTD/svg11.dtd">
<svg version="1.1" id="Layer_1" xmlns="http://www.w3.org/2000/svg" xmlns:xlink="http://www.w3.org/1999/xlink" x="0px" y="0px"
	 width="804px" height="804px" viewBox="0 0 804 804" enable-background="new 0 0 804 804" xml:space="preserve">
<g>
	<polygon fill="none" stroke="#000000" stroke-width="4" stroke-miterlimit="10" points="365.9,464.5 402,402 438.1,464.5 	"/>
	<polygon fill="none" stroke="#000000" stroke-width="4" stroke-miterlimit="10" points="438.1,464.5 402,527 365.9,464.5 	"/>
	<polygon fill="none" stroke="#000000" stroke-width="4" stroke-miterlimit="10" points="474.2,527 438.1,589.5 402,527 	"/>
	<polygon fill="none" stroke="#000000" stroke-width="4" stroke-miterlimit="10" points="402,527 365.9,589.5 329.8,527 	"/>
	<polygon fill="none" stroke="#000000" stroke-width="4" stroke-miterlimit="10" points="365.9,589.5 402,527 438.1,589.5 	"/>
	<polygon fill="none" stroke="#000000" stroke-width="4" stroke-miterlimit="10" points="402,527 438.1,464.5 474.2,527 	"/>
	<polygon fill="none" stroke="#000000" stroke-width="4" stroke-miterlimit="10" points="329.8,527 365.9,464.5 402,527 	"/>
	<polygon fill="none" stroke="#000000" stroke-width="4" stroke-miterlimit="10" points="438.1,589.5 474.2,527 510.3,589.5 	"/>
	<polygon fill="none" stroke="#000000" stroke-width="4" stroke-miterlimit="10" points="293.7,589.5 329.8,527 365.9,589.5 	"/>
</g>
<g>
	<polygon fill="none" stroke="#000000" stroke-width="4" stroke-miterlimit="10" points="438.1,339.5 402,402 365.9,339.5 	"/>
	<polygon fill="none" stroke="#000000" stroke-width="4" stroke-miterlimit="10" points="365.9,339.5 402,277 438.1,339.5 	"/>
	<polygon fill="none" stroke="#000000" stroke-width="4" stroke-miterlimit="10" points="329.8,277 365.9,214.5 402,277 	"/>
	<polygon fill="none" stroke="#000000" stroke-width="4" stroke-miterlimit="10" points="402,277 438.1,214.5 474.2,277 	"/>
	<polygon fill="none" stroke="#000000" stroke-width="4" stroke-miterlimit="10" points="438.1,214.5 402,277 365.9,214.5 	"/>
	<polygon fill="none" stroke="#000000" stroke-width="4" stroke-miterlimit="10" points="402,277 365.9,339.5 329.8,277 	"/>
	<polygon fill="none" stroke="#000000" stroke-width="4" stroke-miterlimit="10" points="474.2,277 438.1,339.5 402,277 	"/>
	<polygon fill="none" stroke="#000000" stroke-width="4" stroke-miterlimit="10" points="365.9,214.5 329.8,277 293.7,214.5 	"/>
	<polygon fill="none" stroke="#000000" stroke-width="4" stroke-miterlimit="10" points="510.3,214.5 474.2,277 438.1,214.5 	"/>
</g>
<g>
	<g>
		<polygon fill="none" stroke="#000000" stroke-width="4" stroke-miterlimit="10" points="474.2,277 510.3,214.5 546.3,277 		"/>
		<polygon fill="none" stroke="#000000" stroke-width="4" stroke-miterlimit="10" points="546.3,277 510.3,339.5 474.2,277 		"/>
		<polygon fill="none" stroke="#000000" stroke-width="4" stroke-miterlimit="10" points="582.4,339.5 546.3,402 510.3,339.5 		"/>
		<polygon fill="none" stroke="#000000" stroke-width="4" stroke-miterlimit="10" points="510.3,339.5 474.2,402 438.1,339.5 		"/>
		<polygon fill="none" stroke="#000000" stroke-width="4" stroke-miterlimit="10" points="474.2,402 510.3,339.5 546.3,402 		"/>
		<polygon fill="none" stroke="#000000" stroke-width="4" stroke-miterlimit="10" points="510.3,339.5 546.3,277 582.4,339.5 		"/>
		<polygon fill="none" stroke="#000000" stroke-width="4" stroke-miterlimit="10" points="438.1,339.5 474.2,277 510.3,339.5 		"/>
		<polygon fill="none" stroke="#000000" stroke-width="4" stroke-miterlimit="10" points="546.3,402 582.4,339.5 618.5,402 		"/>
		<polygon fill="none" stroke="#000000" stroke-width="4" stroke-miterlimit="10" points="402,402 438.1,339.5 474.2,402 		"/>
	</g>
	<g>
		<polygon fill="none" stroke="#000000" stroke-width="4" stroke-miterlimit="10" points="546.3,527 510.3,589.5 474.2,527 		"/>
		<polygon fill="none" stroke="#000000" stroke-width="4" stroke-miterlimit="10" points="474.2,527 510.3,464.5 546.3,527 		"/>
		<polygon fill="none" stroke="#000000" stroke-width="4" stroke-miterlimit="10" points="438.1,464.5 474.2,402 510.3,464.5 		"/>
		<polygon fill="none" stroke="#000000" stroke-width="4" stroke-miterlimit="10" points="510.3,464.5 546.3,402 582.4,464.5 		"/>
		<polygon fill="none" stroke="#000000" stroke-width="4" stroke-miterlimit="10" points="546.3,402 510.3,464.5 474.2,402 		"/>
		<polygon fill="none" stroke="#000000" stroke-width="4" stroke-miterlimit="10" points="510.3,464.5 474.2,527 438.1,464.5 		"/>
		<polygon fill="none" stroke="#000000" stroke-width="4" stroke-miterlimit="10" points="582.4,464.5 546.3,527 510.3,464.5 		"/>
		<polygon fill="none" stroke="#000000" stroke-width="4" stroke-miterlimit="10" points="474.2,402 438.1,464.5 402,402 		"/>
		<polygon fill="none" stroke="#000000" stroke-width="4" stroke-miterlimit="10" points="618.5,402 582.4,464.5 546.3,402 		"/>
	</g>
</g>
<g>
	<g>
		<polygon fill="none" stroke="#000000" stroke-width="4" stroke-miterlimit="10" points="257.7,277 293.7,214.5 329.8,277 		"/>
		<polygon fill="none" stroke="#000000" stroke-width="4" stroke-miterlimit="10" points="329.8,277 293.7,339.5 257.7,277 		"/>
		<polygon fill="none" stroke="#000000" stroke-width="4" stroke-miterlimit="10" points="365.9,339.5 329.8,402 293.7,339.5 		"/>
		<polygon fill="none" stroke="#000000" stroke-width="4" stroke-miterlimit="10" points="293.7,339.5 257.7,402 221.6,339.5 		"/>
		<polygon fill="none" stroke="#000000" stroke-width="4" stroke-miterlimit="10" points="257.7,402 293.7,339.5 329.8,402 		"/>
		<polygon fill="none" stroke="#000000" stroke-width="4" stroke-miterlimit="10" points="293.7,339.5 329.8,277 365.9,339.5 		"/>
		<polygon fill="none" stroke="#000000" stroke-width="4" stroke-miterlimit="10" points="221.6,339.5 257.7,277 293.7,339.5 		"/>
		<polygon fill="none" stroke="#000000" stroke-width="4" stroke-miterlimit="10" points="329.8,402 365.9,339.5 402,402 		"/>
		<polygon fill="none" stroke="#000000" stroke-width="4" stroke-miterlimit="10" points="185.5,402 221.6,339.5 257.7,402 		"/>
	</g>
	<g>
		<polygon fill="none" stroke="#000000" stroke-width="4" stroke-miterlimit="10" points="329.8,527 293.7,589.5 257.7,527 		"/>
		<polygon fill="none" stroke="#000000" stroke-width="4" stroke-miterlimit="10" points="257.7,527 293.7,464.5 329.8,527 		"/>
		<polygon fill="none" stroke="#000000" stroke-width="4" stroke-miterlimit="10" points="221.6,464.5 257.7,402 293.7,464.5 		"/>
		<polygon fill="none" stroke="#000000" stroke-width="4" stroke-miterlimit="10" points="293.7,464.5 329.8,402 365.9,464.5 		"/>
		<polygon fill="none" stroke="#000000" stroke-width="4" stroke-miterlimit="10" points="329.8,402 293.7,464.5 257.7,402 		"/>
		<polygon fill="none" stroke="#000000" stroke-width="4" stroke-miterlimit="10" points="293.7,464.5 257.7,527 221.6,464.5 		"/>
		<polygon fill="none" stroke="#000000" stroke-width="4" stroke-miterlimit="10" points="365.9,464.5 329.8,527 293.7,464.5 		"/>
		<polygon fill="none" stroke="#000000" stroke-width="4" stroke-miterlimit="10" points="257.7,402 221.6,464.5 185.5,402 		"/>
		<polygon fill="none" stroke="#000000" stroke-width="4" stroke-miterlimit="10" points="402,402 365.9,464.5 329.8,402 		"/>
	</g>
</g>
<circle fill="none" stroke="#000000" stroke-width="4" stroke-miterlimit="10" cx="402" cy="402" r="400"/>
<g>
	<polygon fill="none" stroke="#000000" stroke-width="4" stroke-miterlimit="10" points="582.4,464.5 618.5,402 654.6,464.5 	"/>
	<polygon fill="none" stroke="#000000" stroke-width="4" stroke-miterlimit="10" points="654.6,464.5 618.5,527 582.4,464.5 	"/>
	<polygon fill="none" stroke="#000000" stroke-width="4" stroke-miterlimit="10" points="690.7,527 654.6,589.5 618.5,527 	"/>
	<polygon fill="none" stroke="#000000" stroke-width="4" stroke-miterlimit="10" points="618.5,527 582.4,589.5 546.3,527 	"/>
	<polygon fill="none" stroke="#000000" stroke-width="4" stroke-miterlimit="10" points="582.4,589.5 618.5,527 654.6,589.5 	"/>
	<polygon fill="none" stroke="#000000" stroke-width="4" stroke-miterlimit="10" points="618.5,527 654.6,464.5 690.7,527 	"/>
	<polygon fill="none" stroke="#000000" stroke-width="4" stroke-miterlimit="10" points="546.3,527 582.4,464.5 618.5,527 	"/>
	<polygon fill="none" stroke="#000000" stroke-width="4" stroke-miterlimit="10" points="654.6,589.5 690.7,527 726.8,589.5 	"/>
	<polygon fill="none" stroke="#000000" stroke-width="4" stroke-miterlimit="10" points="510.3,589.5 546.3,527 582.4,589.5 	"/>
</g>
<g>
	<polygon fill="none" stroke="#000000" stroke-width="4" stroke-miterlimit="10" points="149.4,464.5 185.5,402 221.6,464.5 	"/>
	<polygon fill="none" stroke="#000000" stroke-width="4" stroke-miterlimit="10" points="221.6,464.5 185.5,527 149.4,464.5 	"/>
	<polygon fill="none" stroke="#000000" stroke-width="4" stroke-miterlimit="10" points="257.7,527 221.6,589.5 185.5,527 	"/>
	<polygon fill="none" stroke="#000000" stroke-width="4" stroke-miterlimit="10" points="185.5,527 149.4,589.5 113.3,527 	"/>
	<polygon fill="none" stroke="#000000" stroke-width="4" stroke-miterlimit="10" points="149.4,589.5 185.5,527 221.6,589.5 	"/>
	<polygon fill="none" stroke="#000000" stroke-width="4" stroke-miterlimit="10" points="185.5,527 221.6,464.5 257.7,527 	"/>
	<polygon fill="none" stroke="#000000" stroke-width="4" stroke-miterlimit="10" points="113.3,527 149.4,464.5 185.5,527 	"/>
	<polygon fill="none" stroke="#000000" stroke-width="4" stroke-miterlimit="10" points="221.6,589.5 257.7,527 293.7,589.5 	"/>
	<polygon fill="none" stroke="#000000" stroke-width="4" stroke-miterlimit="10" points="77.2,589.5 113.3,527 149.4,589.5 	"/>
</g>
<g>
	<polygon fill="none" stroke="#000000" stroke-width="4" stroke-miterlimit="10" points="438.1,714.5 402,777 365.9,714.5 	"/>
	<polygon fill="none" stroke="#000000" stroke-width="4" stroke-miterlimit="10" points="365.9,714.5 402,652 438.1,714.5 	"/>
	<polygon fill="none" stroke="#000000" stroke-width="4" stroke-miterlimit="10" points="329.8,652 365.9,589.5 402,652 	"/>
	<polygon fill="none" stroke="#000000" stroke-width="4" stroke-miterlimit="10" points="402,652 438.1,589.5 474.2,652 	"/>
	<polygon fill="none" stroke="#000000" stroke-width="4" stroke-miterlimit="10" points="438.1,589.5 402,652 365.9,589.5 	"/>
	<polygon fill="none" stroke="#000000" stroke-width="4" stroke-miterlimit="10" points="402,652 365.9,714.5 329.8,652 	"/>
	<polygon fill="none" stroke="#000000" stroke-width="4" stroke-miterlimit="10" points="474.2,652 438.1,714.5 402,652 	"/>
	<polygon fill="none" stroke="#000000" stroke-width="4" stroke-miterlimit="10" points="365.9,589.5 329.8,652 293.7,589.5 	"/>
	<polygon fill="none" stroke="#000000" stroke-width="4" stroke-miterlimit="10" points="510.3,589.5 474.2,652 438.1,589.5 	"/>
</g>
<polygon fill="none" stroke="#000000" stroke-width="4" stroke-miterlimit="10" points="365.9,89.5 402,27 438.1,89.5 "/>
<polygon fill="none" stroke="#000000" stroke-width="4" stroke-miterlimit="10" points="438.1,89.5 402,152 365.9,89.5 "/>
<polygon fill="none" stroke="#000000" stroke-width="4" stroke-miterlimit="10" points="474.2,152 438.1,214.5 402,152 "/>
<polygon fill="none" stroke="#000000" stroke-width="4" stroke-miterlimit="10" points="402,152 365.9,214.5 329.8,152 "/>
<polygon fill="none" stroke="#000000" stroke-width="4" stroke-miterlimit="10" points="365.9,214.5 402,152 438.1,214.5 "/>
<polygon fill="none" stroke="#000000" stroke-width="4" stroke-miterlimit="10" points="402,152 438.1,89.5 474.2,152 "/>
<polygon fill="none" stroke="#000000" stroke-width="4" stroke-miterlimit="10" points="329.8,152 365.9,89.5 402,152 "/>
<polygon fill="none" stroke="#000000" stroke-width="4" stroke-miterlimit="10" points="438.1,214.5 474.2,152 510.3,214.5 "/>
<polygon fill="none" stroke="#000000" stroke-width="4" stroke-miterlimit="10" points="293.7,214.5 329.8,152 365.9,214.5 "/>
<g>
	<polygon fill="none" stroke="#000000" stroke-width="4" stroke-miterlimit="10" points="654.6,339.5 618.5,402 582.4,339.5 	"/>
	<polygon fill="none" stroke="#000000" stroke-width="4" stroke-miterlimit="10" points="582.4,339.5 618.5,277 654.6,339.5 	"/>
	<polygon fill="none" stroke="#000000" stroke-width="4" stroke-miterlimit="10" points="546.3,277 582.4,214.5 618.5,277 	"/>
	<polygon fill="none" stroke="#000000" stroke-width="4" stroke-miterlimit="10" points="618.5,277 654.6,214.5 690.7,277 	"/>
	<polygon fill="none" stroke="#000000" stroke-width="4" stroke-miterlimit="10" points="654.6,214.5 618.5,277 582.4,214.5 	"/>
	<polygon fill="none" stroke="#000000" stroke-width="4" stroke-miterlimit="10" points="618.5,277 582.4,339.5 546.3,277 	"/>
	<polygon fill="none" stroke="#000000" stroke-width="4" stroke-miterlimit="10" points="690.7,277 654.6,339.5 618.5,277 	"/>
	<polygon fill="none" stroke="#000000" stroke-width="4" stroke-miterlimit="10" points="582.4,214.5 546.3,277 510.3,214.5 	"/>
	<polygon fill="none" stroke="#000000" stroke-width="4" stroke-miterlimit="10" points="726.8,214.5 690.7,277 654.6,214.5 	"/>
</g>
<g>
	<polygon fill="none" stroke="#000000" stroke-width="4" stroke-miterlimit="10" points="221.6,339.5 185.5,402 149.4,339.5 	"/>
	<polygon fill="none" stroke="#000000" stroke-width="4" stroke-miterlimit="10" points="149.4,339.5 185.5,277 221.6,339.5 	"/>
	<polygon fill="none" stroke="#000000" stroke-width="4" stroke-miterlimit="10" points="113.3,277 149.4,214.5 185.5,277 	"/>
	<polygon fill="none" stroke="#000000" stroke-width="4" stroke-miterlimit="10" points="185.5,277 221.6,214.5 257.7,277 	"/>
	<polygon fill="none" stroke="#000000" stroke-width="4" stroke-miterlimit="10" points="221.6,214.5 185.5,277 149.4,214.5 	"/>
	<polygon fill="none" stroke="#000000" stroke-width="4" stroke-miterlimit="10" points="185.5,277 149.4,339.5 113.3,277 	"/>
	<polygon fill="none" stroke="#000000" stroke-width="4" stroke-miterlimit="10" points="257.7,277 221.6,339.5 185.5,277 	"/>
	<polygon fill="none" stroke="#000000" stroke-width="4" stroke-miterlimit="10" points="149.4,214.5 113.3,277 77.2,214.5 	"/>
	<polygon fill="none" stroke="#000000" stroke-width="4" stroke-miterlimit="10" points="293.7,214.5 257.7,277 221.6,214.5 	"/>
</g>
<circle fill="#FFFFFF" stroke="#000000" stroke-width="4" stroke-miterlimit="10" cx="329.8" cy="152" r="10"/>
<circle fill="#FFFFFF" stroke="#000000" stroke-width="4" stroke-miterlimit="10" cx="293.7" cy="214.5" r="10"/>
<circle fill="#FFFFFF" stroke="#000000" stroke-width="4" stroke-miterlimit="10" cx="402" cy="152" r="10"/>
<circle fill="#FFFFFF" stroke="#000000" stroke-width="4" stroke-miterlimit="10" cx="438.1" cy="89.5" r="10"/>
<circle fill="#FFFFFF" stroke="#000000" stroke-width="4" stroke-miterlimit="10" cx="438.1" cy="214.5" r="10"/>
<circle fill="#FFFFFF" stroke="#000000" stroke-width="4" stroke-miterlimit="10" cx="510.3" cy="214.5" r="10"/>
<circle fill="#FFFFFF" stroke="#000000" stroke-width="4" stroke-miterlimit="10" cx="365.9" cy="89.5" r="10"/>
<circle fill="#FFFFFF" stroke="#000000" stroke-width="4" stroke-miterlimit="10" cx="365.9" cy="214.5" r="10"/>
<circle fill="#FFFFFF" stroke="#000000" stroke-width="4" stroke-miterlimit="10" cx="474.2" cy="152" r="10"/>
<circle fill="#FFFFFF" stroke="#000000" stroke-width="4" stroke-miterlimit="10" cx="113.3" cy="527" r="10"/>
<circle fill="#FFFFFF" stroke="#000000" stroke-width="4" stroke-miterlimit="10" cx="77.2" cy="589.5" r="10"/>
<circle fill="#FFFFFF" stroke="#000000" stroke-width="4" stroke-miterlimit="10" cx="185.5" cy="527" r="10"/>
<circle fill="#FFFFFF" stroke="#000000" stroke-width="4" stroke-miterlimit="10" cx="185.5" cy="402" r="10"/>
<circle fill="#FFFFFF" stroke="#000000" stroke-width="4" stroke-miterlimit="10" cx="257.7" cy="402" r="10"/>
<circle fill="#FFFFFF" stroke="#000000" stroke-width="4" stroke-miterlimit="10" cx="329.8" cy="402" r="10"/>
<circle fill="#FFFFFF" stroke="#000000" stroke-width="4" stroke-miterlimit="10" cx="402" cy="402" r="10"/>
<circle fill="#FFFFFF" stroke="#000000" stroke-width="4" stroke-miterlimit="10" cx="474.2" cy="402" r="10"/>
<circle fill="#FFFFFF" stroke="#000000" stroke-width="4" stroke-miterlimit="10" cx="546.3" cy="402" r="10"/>
<circle fill="#FFFFFF" stroke="#000000" stroke-width="4" stroke-miterlimit="10" cx="221.6" cy="464.5" r="10"/>
<circle fill="#FFFFFF" stroke="#000000" stroke-width="4" stroke-miterlimit="10" cx="221.6" cy="589.5" r="10"/>
<circle fill="#FFFFFF" stroke="#000000" stroke-width="4" stroke-miterlimit="10" cx="293.7" cy="589.5" r="10"/>
<circle fill="#FFFFFF" stroke="#000000" stroke-width="4" stroke-miterlimit="10" cx="149.4" cy="464.5" r="10"/>
<circle fill="#FFFFFF" stroke="#000000" stroke-width="4" stroke-miterlimit="10" cx="365.9" cy="464.5" r="10"/>
<circle fill="#FFFFFF" stroke="#000000" stroke-width="4" stroke-miterlimit="10" cx="293.7" cy="464.5" r="10"/>
<circle fill="#FFFFFF" stroke="#000000" stroke-width="4" stroke-miterlimit="10" cx="510.3" cy="464.5" r="10"/>
<circle fill="#FFFFFF" stroke="#000000" stroke-width="4" stroke-miterlimit="10" cx="438.1" cy="464.5" r="10"/>
<circle fill="#FFFFFF" stroke="#000000" stroke-width="4" stroke-miterlimit="10" cx="149.4" cy="589.5" r="10"/>
<circle fill="#FFFFFF" stroke="#000000" stroke-width="4" stroke-miterlimit="10" cx="257.7" cy="527" r="10"/>
<circle fill="#FFFFFF" stroke="#000000" stroke-width="4" stroke-miterlimit="10" cx="329.8" cy="527" r="10"/>
<circle fill="#FFFFFF" stroke="#000000" stroke-width="4" stroke-miterlimit="10" cx="402" cy="527" r="10"/>
<circle fill="#FFFFFF" stroke="#000000" stroke-width="4" stroke-miterlimit="10" cx="474.2" cy="527" r="10"/>
<circle fill="#FFFFFF" stroke="#000000" stroke-width="4" stroke-miterlimit="10" cx="546.3" cy="527" r="10"/>
<circle fill="#FFFFFF" stroke="#000000" stroke-width="4" stroke-miterlimit="10" cx="510.3" cy="589.5" r="10"/>
<circle fill="#FFFFFF" stroke="#000000" stroke-width="4" stroke-miterlimit="10" cx="618.5" cy="527" r="10"/>
<circle fill="#FFFFFF" stroke="#000000" stroke-width="4" stroke-miterlimit="10" cx="618.5" cy="402" r="10"/>
<circle fill="#FFFFFF" stroke="#000000" stroke-width="4" stroke-miterlimit="10" cx="654.6" cy="464.5" r="10"/>
<circle fill="#FFFFFF" stroke="#000000" stroke-width="4" stroke-miterlimit="10" cx="654.6" cy="589.5" r="10"/>
<circle fill="#FFFFFF" stroke="#000000" stroke-width="4" stroke-miterlimit="10" cx="726.8" cy="589.5" r="10"/>
<circle fill="#FFFFFF" stroke="#000000" stroke-width="4" stroke-miterlimit="10" cx="582.4" cy="464.5" r="10"/>
<circle fill="#FFFFFF" stroke="#000000" stroke-width="4" stroke-miterlimit="10" cx="582.4" cy="589.5" r="10"/>
<circle fill="#FFFFFF" stroke="#000000" stroke-width="4" stroke-miterlimit="10" cx="690.7" cy="527" r="10"/>
<circle fill="#FFFFFF" stroke="#000000" stroke-width="4" stroke-miterlimit="10" cx="474.2" cy="652" r="10"/>
<circle fill="#FFFFFF" stroke="#000000" stroke-width="4" stroke-miterlimit="10" cx="402" cy="652" r="10"/>
<circle fill="#FFFFFF" stroke="#000000" stroke-width="4" stroke-miterlimit="10" cx="402" cy="777" r="10"/>
<circle fill="#FFFFFF" stroke="#000000" stroke-width="4" stroke-miterlimit="10" cx="365.9" cy="714.5" r="10"/>
<circle fill="#FFFFFF" stroke="#000000" stroke-width="4" stroke-miterlimit="10" cx="365.9" cy="589.5" r="10"/>
<circle fill="#FFFFFF" stroke="#000000" stroke-width="4" stroke-miterlimit="10" cx="438.1" cy="714.5" r="10"/>
<circle fill="#FFFFFF" stroke="#000000" stroke-width="4" stroke-miterlimit="10" cx="438.1" cy="589.5" r="10"/>
<circle fill="#FFFFFF" stroke="#000000" stroke-width="4" stroke-miterlimit="10" cx="329.8" cy="652" r="10"/>
<circle fill="#FFFFFF" stroke="#000000" stroke-width="4" stroke-miterlimit="10" cx="257.7" cy="277" r="10"/>
<circle fill="#FFFFFF" stroke="#000000" stroke-width="4" stroke-miterlimit="10" cx="185.5" cy="277" r="10"/>
<circle fill="#FFFFFF" stroke="#000000" stroke-width="4" stroke-miterlimit="10" cx="149.4" cy="339.5" r="10"/>
<circle fill="#FFFFFF" stroke="#000000" stroke-width="4" stroke-miterlimit="10" cx="149.4" cy="214.5" r="10"/>
<circle fill="#FFFFFF" stroke="#000000" stroke-width="4" stroke-miterlimit="10" cx="77.2" cy="214.5" r="10"/>
<circle fill="#FFFFFF" stroke="#000000" stroke-width="4" stroke-miterlimit="10" cx="221.6" cy="339.5" r="10"/>
<circle fill="#FFFFFF" stroke="#000000" stroke-width="4" stroke-miterlimit="10" cx="293.7" cy="339.5" r="10"/>
<circle fill="#FFFFFF" stroke="#000000" stroke-width="4" stroke-miterlimit="10" cx="365.9" cy="339.5" r="10"/>
<circle fill="#FFFFFF" stroke="#000000" stroke-width="4" stroke-miterlimit="10" cx="438.1" cy="339.5" r="10"/>
<circle fill="#FFFFFF" stroke="#000000" stroke-width="4" stroke-miterlimit="10" cx="510.3" cy="339.5" r="10"/>
<circle fill="#FFFFFF" stroke="#000000" stroke-width="4" stroke-miterlimit="10" cx="221.6" cy="214.5" r="10"/>
<circle fill="#FFFFFF" stroke="#000000" stroke-width="4" stroke-miterlimit="10" cx="113.3" cy="277" r="10"/>
<circle fill="#FFFFFF" stroke="#000000" stroke-width="4" stroke-miterlimit="10" cx="474.2" cy="277" r="10"/>
<circle fill="#FFFFFF" stroke="#000000" stroke-width="4" stroke-miterlimit="10" cx="402" cy="277" r="10"/>
<circle fill="#FFFFFF" stroke="#000000" stroke-width="4" stroke-miterlimit="10" cx="329.8" cy="277" r="10"/>
<circle fill="#FFFFFF" stroke="#000000" stroke-width="4" stroke-miterlimit="10" cx="690.7" cy="277" r="10"/>
<circle fill="#FFFFFF" stroke="#000000" stroke-width="4" stroke-miterlimit="10" cx="726.8" cy="214.5" r="10"/>
<circle fill="#FFFFFF" stroke="#000000" stroke-width="4" stroke-miterlimit="10" cx="618.5" cy="277" r="10"/>
<circle fill="#FFFFFF" stroke="#000000" stroke-width="4" stroke-miterlimit="10" cx="582.4" cy="339.5" r="10"/>
<circle fill="#FFFFFF" stroke="#000000" stroke-width="4" stroke-miterlimit="10" cx="582.4" cy="214.5" r="10"/>
<circle fill="#FFFFFF" stroke="#000000" stroke-width="4" stroke-miterlimit="10" cx="654.6" cy="339.5" r="10"/>
<circle fill="#FFFFFF" stroke="#000000" stroke-width="4" stroke-miterlimit="10" cx="654.6" cy="214.5" r="10"/>
<circle fill="#FFFFFF" stroke="#000000" stroke-width="4" stroke-miterlimit="10" cx="546.3" cy="277" r="10"/>
<circle fill="#FFFFFF" stroke="#000000" stroke-width="4" stroke-miterlimit="10" cx="402" cy="27" r="10"/>
</svg>
