<?xml version="1.0" encoding="utf-8"?>
<!-- Generator: Adobe Illustrator 15.1.0, SVG Export Plug-In . SVG Version: 6.00 Build 0)  -->
<!DOCTYPE svg PUBLIC "-//W3C//DTD SVG 1.1//EN" "http://www.w3.org/Graphics/SVG/1.1/DTD/svg11.dtd">
<svg version="1.1" id="mono" xmlns="http://www.w3.org/2000/svg" xmlns:xlink="http://www.w3.org/1999/xlink" x="0px" y="0px"
	 width="804px" height="804px" viewBox="0 0 804 804" enable-background="new 0 0 804 804" xml:space="preserve">
<g>
	<rect x="2" y="702" fill="#FFFFFF" stroke="#000000" stroke-width="4" stroke-miterlimit="10" width="100" height="100"/>
	<rect x="102" y="2" fill="#FFFFFF" stroke="#000000" stroke-width="4" stroke-miterlimit="10" width="62.5" height="100"/>
	<rect x="164.5" y="2" fill="#FFFFFF" stroke="#000000" stroke-width="4" stroke-miterlimit="10" width="62.5" height="100"/>
	<rect x="227" y="2" fill="#FFFFFF" stroke="#000000" stroke-width="4" stroke-miterlimit="10" width="62.5" height="100"/>
	<rect x="289.5" y="2" fill="#FFFFFF" stroke="#000000" stroke-width="4" stroke-miterlimit="10" width="62.5" height="100"/>
	<rect x="452" y="2" fill="#FFFFFF" stroke="#000000" stroke-width="4" stroke-miterlimit="10" width="62.5" height="100"/>
	<rect x="514.5" y="2" fill="#FFFFFF" stroke="#000000" stroke-width="4" stroke-miterlimit="10" width="62.5" height="100"/>
	<rect x="577" y="2" fill="#FFFFFF" stroke="#000000" stroke-width="4" stroke-miterlimit="10" width="62.5" height="100"/>
	<rect x="639.5" y="2" fill="#FFFFFF" stroke="#000000" stroke-width="4" stroke-miterlimit="10" width="62.5" height="100"/>
	<rect x="352" y="2" fill="#FFFFFF" stroke="#000000" stroke-width="4" stroke-miterlimit="10" width="100" height="100"/>
	<rect x="102" y="702" fill="#FFFFFF" stroke="#000000" stroke-width="4" stroke-miterlimit="10" width="62.5" height="100"/>
	<rect x="164.5" y="702" fill="#FFFFFF" stroke="#000000" stroke-width="4" stroke-miterlimit="10" width="62.5" height="100"/>
	<rect x="227" y="702" fill="#FFFFFF" stroke="#000000" stroke-width="4" stroke-miterlimit="10" width="62.5" height="100"/>
	<rect x="289.5" y="702" fill="#FFFFFF" stroke="#000000" stroke-width="4" stroke-miterlimit="10" width="62.5" height="100"/>
	<rect x="452" y="702" fill="#FFFFFF" stroke="#000000" stroke-width="4" stroke-miterlimit="10" width="62.5" height="100"/>
	<rect x="514.5" y="702" fill="#FFFFFF" stroke="#000000" stroke-width="4" stroke-miterlimit="10" width="62.5" height="100"/>
	<rect x="577" y="702" fill="#FFFFFF" stroke="#000000" stroke-width="4" stroke-miterlimit="10" width="62.5" height="100"/>
	<rect x="639.5" y="702" fill="#FFFFFF" stroke="#000000" stroke-width="4" stroke-miterlimit="10" width="62.5" height="100"/>
	<rect x="352" y="702" fill="#FFFFFF" stroke="#000000" stroke-width="4" stroke-miterlimit="10" width="100" height="100"/>
	<rect x="2" y="2" fill="#FFFFFF" stroke="#000000" stroke-width="4" stroke-miterlimit="10" width="100" height="100"/>
	<rect x="2" y="102" fill="#FFFFFF" stroke="#000000" stroke-width="4" stroke-miterlimit="10" width="100" height="62.5"/>
	<rect x="2" y="164.5" fill="#FFFFFF" stroke="#000000" stroke-width="4" stroke-miterlimit="10" width="100" height="62.5"/>
	<rect x="2" y="227" fill="#FFFFFF" stroke="#000000" stroke-width="4" stroke-miterlimit="10" width="100" height="62.5"/>
	<rect x="2" y="289.5" fill="#FFFFFF" stroke="#000000" stroke-width="4" stroke-miterlimit="10" width="100" height="62.5"/>
	<rect x="2" y="452" fill="#FFFFFF" stroke="#000000" stroke-width="4" stroke-miterlimit="10" width="100" height="62.5"/>
	<rect x="2" y="514.5" fill="#FFFFFF" stroke="#000000" stroke-width="4" stroke-miterlimit="10" width="100" height="62.5"/>
	<rect x="2" y="577" fill="#FFFFFF" stroke="#000000" stroke-width="4" stroke-miterlimit="10" width="100" height="62.5"/>
	<rect x="2" y="639.5" fill="#FFFFFF" stroke="#000000" stroke-width="4" stroke-miterlimit="10" width="100" height="62.5"/>
	<rect x="2" y="352" fill="#FFFFFF" stroke="#000000" stroke-width="4" stroke-miterlimit="10" width="100" height="100"/>
	<polygon fill="none" stroke="#000000" stroke-width="4" stroke-miterlimit="10" points="2,802 2,702 27,702 27,777 102,777 
		102,802 	"/>
	<rect x="702" y="2" fill="#FFFFFF" stroke="#000000" stroke-width="4" stroke-miterlimit="10" width="100" height="100"/>
	<rect x="702" y="102" fill="#FFFFFF" stroke="#000000" stroke-width="4" stroke-miterlimit="10" width="100" height="62.5"/>
	<rect x="702" y="164.5" fill="#FFFFFF" stroke="#000000" stroke-width="4" stroke-miterlimit="10" width="100" height="62.5"/>
	<rect x="702" y="227" fill="#FFFFFF" stroke="#000000" stroke-width="4" stroke-miterlimit="10" width="100" height="62.5"/>
	<rect x="702" y="289.5" fill="#FFFFFF" stroke="#000000" stroke-width="4" stroke-miterlimit="10" width="100" height="62.5"/>
	<rect x="702" y="452" fill="#FFFFFF" stroke="#000000" stroke-width="4" stroke-miterlimit="10" width="100" height="62.5"/>
	<rect x="702" y="514.5" fill="#FFFFFF" stroke="#000000" stroke-width="4" stroke-miterlimit="10" width="100" height="62.5"/>
	<rect x="702" y="577" fill="#FFFFFF" stroke="#000000" stroke-width="4" stroke-miterlimit="10" width="100" height="62.5"/>
	<rect x="702" y="639.5" fill="#FFFFFF" stroke="#000000" stroke-width="4" stroke-miterlimit="10" width="100" height="62.5"/>
	<rect x="702" y="352" fill="#FFFFFF" stroke="#000000" stroke-width="4" stroke-miterlimit="10" width="100" height="100"/>
	<rect x="702" y="702" fill="#FFFFFF" stroke="#000000" stroke-width="4" stroke-miterlimit="10" width="100" height="100"/>
	<polygon fill="none" stroke="#000000" stroke-width="4" stroke-miterlimit="10" points="347.1,231.9 290,289 232.9,346.1 
		204.3,317.6 175.7,289 232.9,231.9 290,174.7 318.6,203.3 	"/>
	<polygon fill="none" stroke="#000000" stroke-width="4" stroke-miterlimit="10" points="456.9,572.1 514,515 571.1,457.9 
		599.7,486.4 628.3,515 571.1,572.1 514,629.3 485.4,600.7 	"/>
	<rect x="102" y="702" fill="none" stroke="#000000" stroke-width="4" stroke-miterlimit="10" width="125" height="25"/>
	<rect x="227" y="77" fill="none" stroke="#000000" stroke-width="4" stroke-miterlimit="10" width="125" height="25"/>
	<rect x="452" y="77" fill="none" stroke="#000000" stroke-width="4" stroke-miterlimit="10" width="125" height="25"/>
	<rect x="289.5" y="702" fill="none" stroke="#000000" stroke-width="4" stroke-miterlimit="10" width="62.5" height="25"/>
	<rect x="102" y="77" fill="none" stroke="#000000" stroke-width="4" stroke-miterlimit="10" width="62.5" height="25"/>
	<rect x="639.5" y="77" fill="none" stroke="#000000" stroke-width="4" stroke-miterlimit="10" width="62.5" height="25"/>
	<rect x="514.5" y="702" fill="none" stroke="#000000" stroke-width="4" stroke-miterlimit="10" width="62.5" height="25"/>
	<rect x="639.5" y="702" fill="none" stroke="#000000" stroke-width="4" stroke-miterlimit="10" width="62.5" height="25"/>
	<rect x="702" y="289.5" fill="none" stroke="#000000" stroke-width="4" stroke-miterlimit="10" width="25" height="62.5"/>
	<rect x="77" y="289.5" fill="none" stroke="#000000" stroke-width="4" stroke-miterlimit="10" width="25" height="62.5"/>
	<rect x="702" y="514.5" fill="none" stroke="#000000" stroke-width="4" stroke-miterlimit="10" width="25" height="62.5"/>
	<rect x="702" y="639.5" fill="none" stroke="#000000" stroke-width="4" stroke-miterlimit="10" width="25" height="62.5"/>
	<rect x="77" y="639.5" fill="none" stroke="#000000" stroke-width="4" stroke-miterlimit="10" width="25" height="62.5"/>
	<rect x="702" y="102" fill="none" stroke="#000000" stroke-width="4" stroke-miterlimit="10" width="25" height="125"/>
	<rect x="77" y="452" fill="none" stroke="#000000" stroke-width="4" stroke-miterlimit="10" width="25" height="125"/>
	<rect x="77" y="102" fill="none" stroke="#000000" stroke-width="4" stroke-miterlimit="10" width="25" height="125"/>
</g>
</svg>
